<mxfile host="app.diagrams.net" modified="2024-01-03T10:54:45.450Z" agent="Mozilla/5.0 (Windows NT 10.0; Win64; x64) AppleWebKit/537.36 (KHTML, like Gecko) Chrome/120.0.0.0 Safari/537.36" etag="IUlmAyQq2dW09W-ULYdk" version="22.1.16" type="google">
  <diagram name="Pagina-1" id="XHgP9kCe-9kffht06hJH">
    <mxGraphModel grid="1" page="0" gridSize="10" guides="1" tooltips="1" connect="1" arrows="1" fold="1" pageScale="1" pageWidth="827" pageHeight="1169" math="1" shadow="0">
      <root>
        <mxCell id="0" />
        <mxCell id="1" parent="0" />
        <mxCell id="AD9h0x3ZnpMd-QSPCWr3-4" value="Educator&lt;br&gt;Web App" style="html=1;dropTarget=0;whiteSpace=wrap;" vertex="1" parent="1">
          <mxGeometry x="-1220" y="1280" width="120" height="80" as="geometry" />
        </mxCell>
        <mxCell id="AD9h0x3ZnpMd-QSPCWr3-5" value="" style="shape=module;jettyWidth=8;jettyHeight=4;" vertex="1" parent="AD9h0x3ZnpMd-QSPCWr3-4">
          <mxGeometry x="1" width="20" height="20" relative="1" as="geometry">
            <mxPoint x="-27" y="7" as="offset" />
          </mxGeometry>
        </mxCell>
        <mxCell id="AD9h0x3ZnpMd-QSPCWr3-6" value="Student&lt;br&gt;Web App" style="html=1;dropTarget=0;whiteSpace=wrap;" vertex="1" parent="1">
          <mxGeometry x="-1220" y="1480" width="120" height="80" as="geometry" />
        </mxCell>
        <mxCell id="AD9h0x3ZnpMd-QSPCWr3-7" value="" style="shape=module;jettyWidth=8;jettyHeight=4;" vertex="1" parent="AD9h0x3ZnpMd-QSPCWr3-6">
          <mxGeometry x="1" width="20" height="20" relative="1" as="geometry">
            <mxPoint x="-27" y="7" as="offset" />
          </mxGeometry>
        </mxCell>
        <mxCell id="AD9h0x3ZnpMd-QSPCWr3-8" value="CodeKataBattle" style="shape=umlFrame;whiteSpace=wrap;html=1;pointerEvents=0;width=110;height=20;" vertex="1" parent="1">
          <mxGeometry x="-860" y="1240" width="480" height="340" as="geometry" />
        </mxCell>
        <mxCell id="AD9h0x3ZnpMd-QSPCWr3-9" value="Educator &lt;br&gt;Manager" style="html=1;dropTarget=0;whiteSpace=wrap;" vertex="1" parent="1">
          <mxGeometry x="-840.03" y="1280" width="120" height="80" as="geometry" />
        </mxCell>
        <mxCell id="AD9h0x3ZnpMd-QSPCWr3-10" value="" style="shape=module;jettyWidth=8;jettyHeight=4;" vertex="1" parent="AD9h0x3ZnpMd-QSPCWr3-9">
          <mxGeometry x="1" width="20" height="20" relative="1" as="geometry">
            <mxPoint x="-27" y="7" as="offset" />
          </mxGeometry>
        </mxCell>
        <mxCell id="AD9h0x3ZnpMd-QSPCWr3-11" value="Student&lt;br&gt;Manager" style="html=1;dropTarget=0;whiteSpace=wrap;" vertex="1" parent="1">
          <mxGeometry x="-840.03" y="1480" width="120" height="80" as="geometry" />
        </mxCell>
        <mxCell id="AD9h0x3ZnpMd-QSPCWr3-12" value="" style="shape=module;jettyWidth=8;jettyHeight=4;" vertex="1" parent="AD9h0x3ZnpMd-QSPCWr3-11">
          <mxGeometry x="1" width="20" height="20" relative="1" as="geometry">
            <mxPoint x="-27" y="7" as="offset" />
          </mxGeometry>
        </mxCell>
        <mxCell id="AD9h0x3ZnpMd-QSPCWr3-19" value="" style="rounded=0;whiteSpace=wrap;html=1;" vertex="1" parent="1">
          <mxGeometry x="-469.97" y="1570" width="20" height="20" as="geometry" />
        </mxCell>
        <mxCell id="AD9h0x3ZnpMd-QSPCWr3-20" value="" style="rounded=0;orthogonalLoop=1;jettySize=auto;html=1;endArrow=halfCircle;endFill=0;endSize=6;strokeWidth=1;sketch=0;exitX=0.5;exitY=1;exitDx=0;exitDy=0;" edge="1" parent="1" source="AD9h0x3ZnpMd-QSPCWr3-19" target="AD9h0x3ZnpMd-QSPCWr3-22">
          <mxGeometry relative="1" as="geometry">
            <mxPoint x="-558.76" y="1510" as="sourcePoint" />
          </mxGeometry>
        </mxCell>
        <mxCell id="AD9h0x3ZnpMd-QSPCWr3-21" value="" style="rounded=0;orthogonalLoop=1;jettySize=auto;html=1;endArrow=oval;endFill=0;sketch=0;sourcePerimeterSpacing=0;targetPerimeterSpacing=0;endSize=10;exitX=1;exitY=0.5;exitDx=0;exitDy=0;" edge="1" parent="1" source="AD9h0x3ZnpMd-QSPCWr3-41" target="AD9h0x3ZnpMd-QSPCWr3-22">
          <mxGeometry relative="1" as="geometry">
            <mxPoint x="-648.76" y="1680" as="sourcePoint" />
            <Array as="points">
              <mxPoint x="-560" y="1680" />
              <mxPoint x="-460" y="1680" />
            </Array>
          </mxGeometry>
        </mxCell>
        <mxCell id="AD9h0x3ZnpMd-QSPCWr3-22" value="" style="ellipse;whiteSpace=wrap;html=1;align=center;aspect=fixed;fillColor=none;strokeColor=none;resizable=0;perimeter=centerPerimeter;rotatable=0;allowArrows=0;points=[];outlineConnect=1;" vertex="1" parent="1">
          <mxGeometry x="-464.96999999999997" y="1640" width="10" height="10" as="geometry" />
        </mxCell>
        <mxCell id="AD9h0x3ZnpMd-QSPCWr3-40" value="CodeKataBattle database" style="shape=umlFrame;whiteSpace=wrap;html=1;pointerEvents=0;width=160;height=20;" vertex="1" parent="1">
          <mxGeometry x="-730" y="1610" width="180" height="120" as="geometry" />
        </mxCell>
        <mxCell id="AD9h0x3ZnpMd-QSPCWr3-41" value="Query &lt;br&gt;Manager" style="html=1;dropTarget=0;whiteSpace=wrap;" vertex="1" parent="1">
          <mxGeometry x="-698.79" y="1640" width="120" height="80" as="geometry" />
        </mxCell>
        <mxCell id="AD9h0x3ZnpMd-QSPCWr3-42" value="" style="shape=module;jettyWidth=8;jettyHeight=4;" vertex="1" parent="AD9h0x3ZnpMd-QSPCWr3-41">
          <mxGeometry x="1" width="20" height="20" relative="1" as="geometry">
            <mxPoint x="-27" y="7" as="offset" />
          </mxGeometry>
        </mxCell>
        <mxCell id="AD9h0x3ZnpMd-QSPCWr3-23" value="" style="rounded=0;whiteSpace=wrap;html=1;" vertex="1" parent="1">
          <mxGeometry x="-560" y="1670" width="20" height="20" as="geometry" />
        </mxCell>
        <mxCell id="AD9h0x3ZnpMd-QSPCWr3-43" value="" style="rounded=0;orthogonalLoop=1;jettySize=auto;html=1;endArrow=halfCircle;endFill=0;endSize=6;strokeWidth=1;sketch=0;exitX=1;exitY=0.5;exitDx=0;exitDy=0;" edge="1" parent="1" source="AD9h0x3ZnpMd-QSPCWr3-9" target="AD9h0x3ZnpMd-QSPCWr3-45">
          <mxGeometry relative="1" as="geometry">
            <mxPoint x="-250" y="1385" as="sourcePoint" />
            <Array as="points">
              <mxPoint x="-600" y="1320" />
              <mxPoint x="-600" y="1420" />
            </Array>
          </mxGeometry>
        </mxCell>
        <mxCell id="AD9h0x3ZnpMd-QSPCWr3-44" value="" style="rounded=0;orthogonalLoop=1;jettySize=auto;html=1;endArrow=oval;endFill=0;sketch=0;sourcePerimeterSpacing=0;targetPerimeterSpacing=0;endSize=10;exitX=0.5;exitY=0;exitDx=0;exitDy=0;" edge="1" parent="1" source="AD9h0x3ZnpMd-QSPCWr3-19" target="AD9h0x3ZnpMd-QSPCWr3-45">
          <mxGeometry relative="1" as="geometry">
            <mxPoint x="-290" y="1385" as="sourcePoint" />
            <Array as="points">
              <mxPoint x="-460" y="1500" />
              <mxPoint x="-460" y="1420" />
            </Array>
          </mxGeometry>
        </mxCell>
        <mxCell id="AD9h0x3ZnpMd-QSPCWr3-45" value="" style="ellipse;whiteSpace=wrap;html=1;align=center;aspect=fixed;fillColor=none;strokeColor=none;resizable=0;perimeter=centerPerimeter;rotatable=0;allowArrows=0;points=[];outlineConnect=1;" vertex="1" parent="1">
          <mxGeometry x="-565" y="1415" width="10" height="10" as="geometry" />
        </mxCell>
        <mxCell id="AD9h0x3ZnpMd-QSPCWr3-46" value="" style="endArrow=none;html=1;rounded=0;exitX=1;exitY=0.5;exitDx=0;exitDy=0;" edge="1" parent="1" source="AD9h0x3ZnpMd-QSPCWr3-11">
          <mxGeometry width="50" height="50" relative="1" as="geometry">
            <mxPoint x="-300" y="1410" as="sourcePoint" />
            <mxPoint x="-600" y="1420" as="targetPoint" />
            <Array as="points">
              <mxPoint x="-600" y="1520" />
            </Array>
          </mxGeometry>
        </mxCell>
        <mxCell id="AD9h0x3ZnpMd-QSPCWr3-17" value="Query &lt;br&gt;Manager" style="html=1;dropTarget=0;whiteSpace=wrap;" vertex="1" parent="1">
          <mxGeometry x="-519.97" y="1380" width="120" height="80" as="geometry" />
        </mxCell>
        <mxCell id="AD9h0x3ZnpMd-QSPCWr3-18" value="" style="shape=module;jettyWidth=8;jettyHeight=4;" vertex="1" parent="AD9h0x3ZnpMd-QSPCWr3-17">
          <mxGeometry x="1" width="20" height="20" relative="1" as="geometry">
            <mxPoint x="-27" y="7" as="offset" />
          </mxGeometry>
        </mxCell>
        <mxCell id="AD9h0x3ZnpMd-QSPCWr3-47" value="DBMS API" style="text;html=1;strokeColor=none;fillColor=none;align=center;verticalAlign=middle;whiteSpace=wrap;rounded=0;" vertex="1" parent="1">
          <mxGeometry x="-450" y="1630" width="50.03" height="30" as="geometry" />
        </mxCell>
        <mxCell id="AD9h0x3ZnpMd-QSPCWr3-48" value="Query Manager Interface" style="text;html=1;strokeColor=none;fillColor=none;align=center;verticalAlign=middle;whiteSpace=wrap;rounded=0;" vertex="1" parent="1">
          <mxGeometry x="-600.06" y="1430" width="80.06" height="40" as="geometry" />
        </mxCell>
        <mxCell id="AD9h0x3ZnpMd-QSPCWr3-54" value="" style="shape=providedRequiredInterface;html=1;verticalLabelPosition=bottom;sketch=0;rotation=90;" vertex="1" parent="1">
          <mxGeometry x="-690" y="1180" width="20" height="20" as="geometry" />
        </mxCell>
        <mxCell id="AD9h0x3ZnpMd-QSPCWr3-56" value="" style="endArrow=none;dashed=1;html=1;rounded=0;entryX=1;entryY=0.5;entryDx=0;entryDy=0;entryPerimeter=0;" edge="1" parent="1">
          <mxGeometry width="50" height="50" relative="1" as="geometry">
            <mxPoint x="-760" y="1210" as="sourcePoint" />
            <mxPoint x="-760" y="1200" as="targetPoint" />
            <Array as="points" />
          </mxGeometry>
        </mxCell>
        <mxCell id="AD9h0x3ZnpMd-QSPCWr3-57" value="" style="endArrow=none;dashed=1;html=1;rounded=0;entryX=1;entryY=0.5;entryDx=0;entryDy=0;entryPerimeter=0;" edge="1" parent="1" target="AD9h0x3ZnpMd-QSPCWr3-54">
          <mxGeometry width="50" height="50" relative="1" as="geometry">
            <mxPoint x="-720" y="1210" as="sourcePoint" />
            <mxPoint x="-710" y="1210" as="targetPoint" />
            <Array as="points">
              <mxPoint x="-680" y="1210" />
            </Array>
          </mxGeometry>
        </mxCell>
        <mxCell id="AD9h0x3ZnpMd-QSPCWr3-58" value="" style="endArrow=none;dashed=1;html=1;rounded=0;entryX=1;entryY=0.5;entryDx=0;entryDy=0;entryPerimeter=0;" edge="1" parent="1">
          <mxGeometry width="50" height="50" relative="1" as="geometry">
            <mxPoint x="-680" y="1210" as="sourcePoint" />
            <mxPoint x="-600" y="1200" as="targetPoint" />
            <Array as="points">
              <mxPoint x="-600" y="1210" />
            </Array>
          </mxGeometry>
        </mxCell>
        <mxCell id="AD9h0x3ZnpMd-QSPCWr3-61" value="" style="endArrow=none;dashed=1;html=1;rounded=0;entryX=1;entryY=0.5;entryDx=0;entryDy=0;entryPerimeter=0;exitX=0.5;exitY=0;exitDx=0;exitDy=0;" edge="1" parent="1" source="AD9h0x3ZnpMd-QSPCWr3-79">
          <mxGeometry width="50" height="50" relative="1" as="geometry">
            <mxPoint x="-760" y="1220" as="sourcePoint" />
            <mxPoint x="-840" y="1200" as="targetPoint" />
            <Array as="points">
              <mxPoint x="-720" y="1210" />
              <mxPoint x="-780" y="1210" />
              <mxPoint x="-840" y="1210" />
            </Array>
          </mxGeometry>
        </mxCell>
        <mxCell id="AD9h0x3ZnpMd-QSPCWr3-62" value="GitHub API" style="text;html=1;strokeColor=none;fillColor=none;align=center;verticalAlign=middle;whiteSpace=wrap;rounded=0;" vertex="1" parent="1">
          <mxGeometry x="-880" y="1150" width="80" height="30" as="geometry" />
        </mxCell>
        <mxCell id="AD9h0x3ZnpMd-QSPCWr3-63" value="SMS Service" style="text;html=1;strokeColor=none;fillColor=none;align=center;verticalAlign=middle;whiteSpace=wrap;rounded=0;" vertex="1" parent="1">
          <mxGeometry x="-800" y="1150" width="80" height="30" as="geometry" />
        </mxCell>
        <mxCell id="AD9h0x3ZnpMd-QSPCWr3-64" value="Calendar API" style="text;html=1;strokeColor=none;fillColor=none;align=center;verticalAlign=middle;whiteSpace=wrap;rounded=0;" vertex="1" parent="1">
          <mxGeometry x="-720.03" y="1150" width="80.03" height="30" as="geometry" />
        </mxCell>
        <mxCell id="AD9h0x3ZnpMd-QSPCWr3-65" value="Email Service" style="text;html=1;strokeColor=none;fillColor=none;align=center;verticalAlign=middle;whiteSpace=wrap;rounded=0;" vertex="1" parent="1">
          <mxGeometry x="-640" y="1150" width="80" height="30" as="geometry" />
        </mxCell>
        <mxCell id="AD9h0x3ZnpMd-QSPCWr3-79" value="" style="rounded=0;whiteSpace=wrap;html=1;" vertex="1" parent="1">
          <mxGeometry x="-730" y="1230" width="20" height="20" as="geometry" />
        </mxCell>
        <mxCell id="AD9h0x3ZnpMd-QSPCWr3-85" style="edgeStyle=orthogonalEdgeStyle;rounded=0;orthogonalLoop=1;jettySize=auto;html=1;entryX=0;entryY=0.5;entryDx=0;entryDy=0;endArrow=none;endFill=0;" edge="1" parent="1" source="AD9h0x3ZnpMd-QSPCWr3-81" target="AD9h0x3ZnpMd-QSPCWr3-9">
          <mxGeometry relative="1" as="geometry">
            <Array as="points">
              <mxPoint x="-840" y="1320" />
              <mxPoint x="-840" y="1320" />
            </Array>
          </mxGeometry>
        </mxCell>
        <mxCell id="AD9h0x3ZnpMd-QSPCWr3-81" value="" style="rounded=0;whiteSpace=wrap;html=1;" vertex="1" parent="1">
          <mxGeometry x="-870" y="1310" width="20" height="20" as="geometry" />
        </mxCell>
        <mxCell id="AD9h0x3ZnpMd-QSPCWr3-83" style="edgeStyle=orthogonalEdgeStyle;rounded=0;orthogonalLoop=1;jettySize=auto;html=1;entryX=0;entryY=0.5;entryDx=0;entryDy=0;endArrow=none;endFill=0;" edge="1" parent="1" target="AD9h0x3ZnpMd-QSPCWr3-11">
          <mxGeometry relative="1" as="geometry">
            <mxPoint x="-850" y="1520" as="sourcePoint" />
          </mxGeometry>
        </mxCell>
        <mxCell id="AD9h0x3ZnpMd-QSPCWr3-82" value="" style="rounded=0;whiteSpace=wrap;html=1;" vertex="1" parent="1">
          <mxGeometry x="-870" y="1510" width="20" height="20" as="geometry" />
        </mxCell>
        <mxCell id="AD9h0x3ZnpMd-QSPCWr3-89" value="" style="rounded=0;orthogonalLoop=1;jettySize=auto;html=1;endArrow=halfCircle;endFill=0;endSize=6;strokeWidth=1;sketch=0;" edge="1" parent="1" target="AD9h0x3ZnpMd-QSPCWr3-91">
          <mxGeometry relative="1" as="geometry">
            <mxPoint x="-1090" y="1280" as="sourcePoint" />
            <Array as="points" />
          </mxGeometry>
        </mxCell>
        <mxCell id="AD9h0x3ZnpMd-QSPCWr3-90" value="" style="rounded=0;orthogonalLoop=1;jettySize=auto;html=1;endArrow=oval;endFill=0;sketch=0;sourcePerimeterSpacing=0;targetPerimeterSpacing=0;endSize=10;" edge="1" parent="1" target="AD9h0x3ZnpMd-QSPCWr3-91">
          <mxGeometry relative="1" as="geometry">
            <mxPoint x="-880" y="1280" as="sourcePoint" />
            <Array as="points">
              <mxPoint x="-960" y="1280" />
            </Array>
          </mxGeometry>
        </mxCell>
        <mxCell id="AD9h0x3ZnpMd-QSPCWr3-91" value="" style="ellipse;whiteSpace=wrap;html=1;align=center;aspect=fixed;fillColor=none;strokeColor=none;resizable=0;perimeter=centerPerimeter;rotatable=0;allowArrows=0;points=[];outlineConnect=1;" vertex="1" parent="1">
          <mxGeometry x="-985" y="1275" width="10" height="10" as="geometry" />
        </mxCell>
        <mxCell id="AD9h0x3ZnpMd-QSPCWr3-92" value="" style="rounded=0;orthogonalLoop=1;jettySize=auto;html=1;endArrow=halfCircle;endFill=0;endSize=6;strokeWidth=1;sketch=0;" edge="1" parent="1" target="AD9h0x3ZnpMd-QSPCWr3-94">
          <mxGeometry relative="1" as="geometry">
            <mxPoint x="-1090" y="1360" as="sourcePoint" />
            <Array as="points" />
          </mxGeometry>
        </mxCell>
        <mxCell id="AD9h0x3ZnpMd-QSPCWr3-93" value="" style="rounded=0;orthogonalLoop=1;jettySize=auto;html=1;endArrow=oval;endFill=0;sketch=0;sourcePerimeterSpacing=0;targetPerimeterSpacing=0;endSize=10;" edge="1" parent="1" target="AD9h0x3ZnpMd-QSPCWr3-94">
          <mxGeometry relative="1" as="geometry">
            <mxPoint x="-880" y="1315" as="sourcePoint" />
            <Array as="points">
              <mxPoint x="-880" y="1360" />
              <mxPoint x="-960" y="1360" />
            </Array>
          </mxGeometry>
        </mxCell>
        <mxCell id="AD9h0x3ZnpMd-QSPCWr3-94" value="" style="ellipse;whiteSpace=wrap;html=1;align=center;aspect=fixed;fillColor=none;strokeColor=none;resizable=0;perimeter=centerPerimeter;rotatable=0;allowArrows=0;points=[];outlineConnect=1;" vertex="1" parent="1">
          <mxGeometry x="-985" y="1355" width="10" height="10" as="geometry" />
        </mxCell>
        <mxCell id="AD9h0x3ZnpMd-QSPCWr3-95" value="" style="rounded=0;orthogonalLoop=1;jettySize=auto;html=1;endArrow=halfCircle;endFill=0;endSize=6;strokeWidth=1;sketch=0;" edge="1" parent="1" target="AD9h0x3ZnpMd-QSPCWr3-97">
          <mxGeometry relative="1" as="geometry">
            <mxPoint x="-1090" y="1315" as="sourcePoint" />
            <Array as="points">
              <mxPoint x="-1090" y="1240" />
            </Array>
          </mxGeometry>
        </mxCell>
        <mxCell id="AD9h0x3ZnpMd-QSPCWr3-96" value="" style="rounded=0;orthogonalLoop=1;jettySize=auto;html=1;endArrow=oval;endFill=0;sketch=0;sourcePerimeterSpacing=0;targetPerimeterSpacing=0;endSize=10;exitX=0;exitY=0.5;exitDx=0;exitDy=0;" edge="1" parent="1" source="AD9h0x3ZnpMd-QSPCWr3-81" target="AD9h0x3ZnpMd-QSPCWr3-97">
          <mxGeometry relative="1" as="geometry">
            <mxPoint x="-870" y="1315" as="sourcePoint" />
            <Array as="points">
              <mxPoint x="-880" y="1320" />
              <mxPoint x="-880" y="1275" />
              <mxPoint x="-880" y="1240" />
              <mxPoint x="-960" y="1240" />
            </Array>
          </mxGeometry>
        </mxCell>
        <mxCell id="AD9h0x3ZnpMd-QSPCWr3-97" value="" style="ellipse;whiteSpace=wrap;html=1;align=center;aspect=fixed;fillColor=none;strokeColor=none;resizable=0;perimeter=centerPerimeter;rotatable=0;allowArrows=0;points=[];outlineConnect=1;" vertex="1" parent="1">
          <mxGeometry x="-985" y="1235" width="10" height="10" as="geometry" />
        </mxCell>
        <mxCell id="AD9h0x3ZnpMd-QSPCWr3-101" value="" style="rounded=0;orthogonalLoop=1;jettySize=auto;html=1;endArrow=halfCircle;endFill=0;endSize=6;strokeWidth=1;sketch=0;exitX=1;exitY=0.5;exitDx=0;exitDy=0;" edge="1" parent="1" source="AD9h0x3ZnpMd-QSPCWr3-4" target="AD9h0x3ZnpMd-QSPCWr3-103">
          <mxGeometry relative="1" as="geometry">
            <mxPoint x="-1100" y="1325" as="sourcePoint" />
            <Array as="points" />
          </mxGeometry>
        </mxCell>
        <mxCell id="AD9h0x3ZnpMd-QSPCWr3-102" value="" style="rounded=0;orthogonalLoop=1;jettySize=auto;html=1;endArrow=oval;endFill=0;sketch=0;sourcePerimeterSpacing=0;targetPerimeterSpacing=0;endSize=10;exitX=1;exitY=1;exitDx=0;exitDy=0;" edge="1" parent="1" source="AD9h0x3ZnpMd-QSPCWr3-106" target="AD9h0x3ZnpMd-QSPCWr3-103">
          <mxGeometry relative="1" as="geometry">
            <mxPoint x="-870" y="1320" as="sourcePoint" />
            <Array as="points">
              <mxPoint x="-880" y="1320" />
              <mxPoint x="-960" y="1320" />
            </Array>
          </mxGeometry>
        </mxCell>
        <mxCell id="AD9h0x3ZnpMd-QSPCWr3-103" value="" style="ellipse;whiteSpace=wrap;html=1;align=center;aspect=fixed;fillColor=none;strokeColor=none;resizable=0;perimeter=centerPerimeter;rotatable=0;allowArrows=0;points=[];outlineConnect=1;" vertex="1" parent="1">
          <mxGeometry x="-985" y="1315" width="10" height="10" as="geometry" />
        </mxCell>
        <mxCell id="AD9h0x3ZnpMd-QSPCWr3-104" value="Educator Account Manager Interface" style="text;html=1;strokeColor=none;fillColor=none;align=center;verticalAlign=middle;whiteSpace=wrap;rounded=0;" vertex="1" parent="1">
          <mxGeometry x="-1090" y="1215" width="210" height="20" as="geometry" />
        </mxCell>
        <mxCell id="AD9h0x3ZnpMd-QSPCWr3-105" value="Tournament Manager Interface" style="text;html=1;strokeColor=none;fillColor=none;align=center;verticalAlign=middle;whiteSpace=wrap;rounded=0;" vertex="1" parent="1">
          <mxGeometry x="-1090" y="1255" width="210" height="20" as="geometry" />
        </mxCell>
        <mxCell id="AD9h0x3ZnpMd-QSPCWr3-106" value="Battle Manager Interface" style="text;html=1;strokeColor=none;fillColor=none;align=center;verticalAlign=middle;whiteSpace=wrap;rounded=0;" vertex="1" parent="1">
          <mxGeometry x="-1090" y="1295" width="210" height="20" as="geometry" />
        </mxCell>
        <mxCell id="AD9h0x3ZnpMd-QSPCWr3-107" value="Educator Profile Manager Interface" style="text;html=1;strokeColor=none;fillColor=none;align=center;verticalAlign=middle;whiteSpace=wrap;rounded=0;" vertex="1" parent="1">
          <mxGeometry x="-1090" y="1335" width="210" height="20" as="geometry" />
        </mxCell>
        <mxCell id="AD9h0x3ZnpMd-QSPCWr3-109" value="" style="rounded=0;orthogonalLoop=1;jettySize=auto;html=1;endArrow=halfCircle;endFill=0;endSize=6;strokeWidth=1;sketch=0;" edge="1" parent="1" target="AD9h0x3ZnpMd-QSPCWr3-111">
          <mxGeometry relative="1" as="geometry">
            <mxPoint x="-1090" y="1315" as="sourcePoint" />
            <Array as="points">
              <mxPoint x="-1090" y="1375" />
              <mxPoint x="-1090" y="1400" />
            </Array>
          </mxGeometry>
        </mxCell>
        <mxCell id="AD9h0x3ZnpMd-QSPCWr3-110" value="" style="rounded=0;orthogonalLoop=1;jettySize=auto;html=1;endArrow=oval;endFill=0;sketch=0;sourcePerimeterSpacing=0;targetPerimeterSpacing=0;endSize=10;exitX=1;exitY=0.5;exitDx=0;exitDy=0;" edge="1" parent="1" source="AD9h0x3ZnpMd-QSPCWr3-106" target="AD9h0x3ZnpMd-QSPCWr3-111">
          <mxGeometry relative="1" as="geometry">
            <mxPoint x="-870" y="1400" as="sourcePoint" />
            <Array as="points">
              <mxPoint x="-880" y="1400" />
              <mxPoint x="-960" y="1400" />
            </Array>
          </mxGeometry>
        </mxCell>
        <mxCell id="AD9h0x3ZnpMd-QSPCWr3-111" value="" style="ellipse;whiteSpace=wrap;html=1;align=center;aspect=fixed;fillColor=none;strokeColor=none;resizable=0;perimeter=centerPerimeter;rotatable=0;allowArrows=0;points=[];outlineConnect=1;" vertex="1" parent="1">
          <mxGeometry x="-985" y="1395" width="10" height="10" as="geometry" />
        </mxCell>
        <mxCell id="AD9h0x3ZnpMd-QSPCWr3-112" value="Educator Research Interface" style="text;html=1;strokeColor=none;fillColor=none;align=center;verticalAlign=middle;whiteSpace=wrap;rounded=0;" vertex="1" parent="1">
          <mxGeometry x="-1090" y="1375" width="210" height="20" as="geometry" />
        </mxCell>
        <mxCell id="AD9h0x3ZnpMd-QSPCWr3-114" value="" style="rounded=0;orthogonalLoop=1;jettySize=auto;html=1;endArrow=halfCircle;endFill=0;endSize=6;strokeWidth=1;sketch=0;" edge="1" parent="1" target="AD9h0x3ZnpMd-QSPCWr3-116">
          <mxGeometry relative="1" as="geometry">
            <mxPoint x="-1090" y="1480" as="sourcePoint" />
            <Array as="points" />
          </mxGeometry>
        </mxCell>
        <mxCell id="AD9h0x3ZnpMd-QSPCWr3-115" value="" style="rounded=0;orthogonalLoop=1;jettySize=auto;html=1;endArrow=oval;endFill=0;sketch=0;sourcePerimeterSpacing=0;targetPerimeterSpacing=0;endSize=10;" edge="1" parent="1" target="AD9h0x3ZnpMd-QSPCWr3-116">
          <mxGeometry relative="1" as="geometry">
            <mxPoint x="-880" y="1480" as="sourcePoint" />
            <Array as="points">
              <mxPoint x="-960" y="1480" />
            </Array>
          </mxGeometry>
        </mxCell>
        <mxCell id="AD9h0x3ZnpMd-QSPCWr3-116" value="" style="ellipse;whiteSpace=wrap;html=1;align=center;aspect=fixed;fillColor=none;strokeColor=none;resizable=0;perimeter=centerPerimeter;rotatable=0;allowArrows=0;points=[];outlineConnect=1;" vertex="1" parent="1">
          <mxGeometry x="-985" y="1475" width="10" height="10" as="geometry" />
        </mxCell>
        <mxCell id="AD9h0x3ZnpMd-QSPCWr3-117" value="" style="rounded=0;orthogonalLoop=1;jettySize=auto;html=1;endArrow=halfCircle;endFill=0;endSize=6;strokeWidth=1;sketch=0;" edge="1" parent="1" target="AD9h0x3ZnpMd-QSPCWr3-119">
          <mxGeometry relative="1" as="geometry">
            <mxPoint x="-1090" y="1560" as="sourcePoint" />
            <Array as="points" />
          </mxGeometry>
        </mxCell>
        <mxCell id="AD9h0x3ZnpMd-QSPCWr3-118" value="" style="rounded=0;orthogonalLoop=1;jettySize=auto;html=1;endArrow=oval;endFill=0;sketch=0;sourcePerimeterSpacing=0;targetPerimeterSpacing=0;endSize=10;" edge="1" parent="1" target="AD9h0x3ZnpMd-QSPCWr3-119">
          <mxGeometry relative="1" as="geometry">
            <mxPoint x="-880" y="1560" as="sourcePoint" />
            <Array as="points">
              <mxPoint x="-960" y="1560" />
            </Array>
          </mxGeometry>
        </mxCell>
        <mxCell id="AD9h0x3ZnpMd-QSPCWr3-119" value="" style="ellipse;whiteSpace=wrap;html=1;align=center;aspect=fixed;fillColor=none;strokeColor=none;resizable=0;perimeter=centerPerimeter;rotatable=0;allowArrows=0;points=[];outlineConnect=1;" vertex="1" parent="1">
          <mxGeometry x="-985" y="1555" width="10" height="10" as="geometry" />
        </mxCell>
        <mxCell id="AD9h0x3ZnpMd-QSPCWr3-120" value="" style="rounded=0;orthogonalLoop=1;jettySize=auto;html=1;endArrow=halfCircle;endFill=0;endSize=6;strokeWidth=1;sketch=0;" edge="1" parent="1" target="AD9h0x3ZnpMd-QSPCWr3-122">
          <mxGeometry relative="1" as="geometry">
            <mxPoint x="-1090" y="1515" as="sourcePoint" />
            <Array as="points">
              <mxPoint x="-1090" y="1440" />
            </Array>
          </mxGeometry>
        </mxCell>
        <mxCell id="AD9h0x3ZnpMd-QSPCWr3-121" value="" style="rounded=0;orthogonalLoop=1;jettySize=auto;html=1;endArrow=oval;endFill=0;sketch=0;sourcePerimeterSpacing=0;targetPerimeterSpacing=0;endSize=10;" edge="1" parent="1" target="AD9h0x3ZnpMd-QSPCWr3-122">
          <mxGeometry relative="1" as="geometry">
            <mxPoint x="-880" y="1515" as="sourcePoint" />
            <Array as="points">
              <mxPoint x="-880" y="1440" />
              <mxPoint x="-960" y="1440" />
            </Array>
          </mxGeometry>
        </mxCell>
        <mxCell id="AD9h0x3ZnpMd-QSPCWr3-122" value="" style="ellipse;whiteSpace=wrap;html=1;align=center;aspect=fixed;fillColor=none;strokeColor=none;resizable=0;perimeter=centerPerimeter;rotatable=0;allowArrows=0;points=[];outlineConnect=1;" vertex="1" parent="1">
          <mxGeometry x="-985" y="1435" width="10" height="10" as="geometry" />
        </mxCell>
        <mxCell id="AD9h0x3ZnpMd-QSPCWr3-123" value="" style="rounded=0;orthogonalLoop=1;jettySize=auto;html=1;endArrow=halfCircle;endFill=0;endSize=6;strokeWidth=1;sketch=0;exitX=1;exitY=0.5;exitDx=0;exitDy=0;" edge="1" parent="1" source="AD9h0x3ZnpMd-QSPCWr3-6" target="AD9h0x3ZnpMd-QSPCWr3-125">
          <mxGeometry relative="1" as="geometry">
            <mxPoint x="-1100" y="1515" as="sourcePoint" />
            <Array as="points">
              <mxPoint x="-1090" y="1520" />
            </Array>
          </mxGeometry>
        </mxCell>
        <mxCell id="AD9h0x3ZnpMd-QSPCWr3-124" value="" style="rounded=0;orthogonalLoop=1;jettySize=auto;html=1;endArrow=oval;endFill=0;sketch=0;sourcePerimeterSpacing=0;targetPerimeterSpacing=0;endSize=10;exitX=0;exitY=0.5;exitDx=0;exitDy=0;" edge="1" parent="1" source="AD9h0x3ZnpMd-QSPCWr3-82" target="AD9h0x3ZnpMd-QSPCWr3-125">
          <mxGeometry relative="1" as="geometry">
            <mxPoint x="-870" y="1515" as="sourcePoint" />
            <Array as="points">
              <mxPoint x="-880" y="1520" />
              <mxPoint x="-960" y="1520" />
            </Array>
          </mxGeometry>
        </mxCell>
        <mxCell id="AD9h0x3ZnpMd-QSPCWr3-125" value="" style="ellipse;whiteSpace=wrap;html=1;align=center;aspect=fixed;fillColor=none;strokeColor=none;resizable=0;perimeter=centerPerimeter;rotatable=0;allowArrows=0;points=[];outlineConnect=1;" vertex="1" parent="1">
          <mxGeometry x="-985" y="1515" width="10" height="10" as="geometry" />
        </mxCell>
        <mxCell id="AD9h0x3ZnpMd-QSPCWr3-126" value="Account Manager Interface" style="text;html=1;strokeColor=none;fillColor=none;align=center;verticalAlign=middle;whiteSpace=wrap;rounded=0;" vertex="1" parent="1">
          <mxGeometry x="-1080" y="1415" width="200" height="20" as="geometry" />
        </mxCell>
        <mxCell id="AD9h0x3ZnpMd-QSPCWr3-127" value="Tournament Subscription Interface" style="text;html=1;strokeColor=none;fillColor=none;align=center;verticalAlign=middle;whiteSpace=wrap;rounded=0;" vertex="1" parent="1">
          <mxGeometry x="-1080" y="1455" width="200" height="20" as="geometry" />
        </mxCell>
        <mxCell id="AD9h0x3ZnpMd-QSPCWr3-128" value="Battle Subscription Interface" style="text;html=1;strokeColor=none;fillColor=none;align=center;verticalAlign=middle;whiteSpace=wrap;rounded=0;" vertex="1" parent="1">
          <mxGeometry x="-1080" y="1495" width="200" height="20" as="geometry" />
        </mxCell>
        <mxCell id="AD9h0x3ZnpMd-QSPCWr3-129" value="Student&amp;nbsp;Profile Manager Interface" style="text;html=1;strokeColor=none;fillColor=none;align=center;verticalAlign=middle;whiteSpace=wrap;rounded=0;" vertex="1" parent="1">
          <mxGeometry x="-1080" y="1535" width="200" height="20" as="geometry" />
        </mxCell>
        <mxCell id="AD9h0x3ZnpMd-QSPCWr3-130" value="" style="rounded=0;orthogonalLoop=1;jettySize=auto;html=1;endArrow=halfCircle;endFill=0;endSize=6;strokeWidth=1;sketch=0;" edge="1" parent="1" target="AD9h0x3ZnpMd-QSPCWr3-132">
          <mxGeometry relative="1" as="geometry">
            <mxPoint x="-1090" y="1515" as="sourcePoint" />
            <Array as="points">
              <mxPoint x="-1090" y="1600" />
            </Array>
          </mxGeometry>
        </mxCell>
        <mxCell id="AD9h0x3ZnpMd-QSPCWr3-131" value="" style="rounded=0;orthogonalLoop=1;jettySize=auto;html=1;endArrow=oval;endFill=0;sketch=0;sourcePerimeterSpacing=0;targetPerimeterSpacing=0;endSize=10;" edge="1" parent="1" target="AD9h0x3ZnpMd-QSPCWr3-132">
          <mxGeometry relative="1" as="geometry">
            <mxPoint x="-880" y="1515" as="sourcePoint" />
            <Array as="points">
              <mxPoint x="-880" y="1600" />
              <mxPoint x="-960" y="1600" />
            </Array>
          </mxGeometry>
        </mxCell>
        <mxCell id="AD9h0x3ZnpMd-QSPCWr3-132" value="" style="ellipse;whiteSpace=wrap;html=1;align=center;aspect=fixed;fillColor=none;strokeColor=none;resizable=0;perimeter=centerPerimeter;rotatable=0;allowArrows=0;points=[];outlineConnect=1;" vertex="1" parent="1">
          <mxGeometry x="-985" y="1595" width="10" height="10" as="geometry" />
        </mxCell>
        <mxCell id="AD9h0x3ZnpMd-QSPCWr3-133" value="Student&amp;nbsp;Research Interface" style="text;html=1;strokeColor=none;fillColor=none;align=center;verticalAlign=middle;whiteSpace=wrap;rounded=0;" vertex="1" parent="1">
          <mxGeometry x="-1080" y="1575" width="200" height="20" as="geometry" />
        </mxCell>
        <mxCell id="AD9h0x3ZnpMd-QSPCWr3-183" value="&lt;div style=&quot;box-sizing:border-box;width:100%;background:#e4e4e4;padding:2px;&quot;&gt;Student&lt;/div&gt;&lt;table style=&quot;width:100%;font-size:1em;&quot; cellpadding=&quot;2&quot; cellspacing=&quot;0&quot;&gt;&lt;tbody&gt;&lt;tr&gt;&lt;td&gt;&lt;u&gt;studentID&lt;/u&gt;&lt;/td&gt;&lt;td&gt;int&lt;/td&gt;&lt;/tr&gt;&lt;tr&gt;&lt;td&gt;name&lt;br&gt;surname&lt;br&gt;username&lt;br&gt;email&amp;nbsp;&lt;br&gt;telephone&lt;br&gt;verificationCode&lt;br&gt;token&lt;br&gt;bio&lt;/td&gt;&lt;td&gt;varchar(32)&lt;br&gt;varchar(32)&lt;br&gt;varchar(64)&lt;br&gt;varchar(64)&lt;br&gt;varchar(16)&lt;br&gt;varchar(8)&lt;br&gt;varchar(64)&lt;br&gt;varchar(1024)&lt;/td&gt;&lt;/tr&gt;&lt;tr&gt;&lt;td&gt;&lt;/td&gt;&lt;td&gt;&lt;br&gt;&lt;/td&gt;&lt;/tr&gt;&lt;/tbody&gt;&lt;/table&gt;" style="verticalAlign=top;align=left;overflow=fill;html=1;whiteSpace=wrap;" vertex="1" parent="1">
          <mxGeometry x="-2050" y="1018.75" width="180" height="156.25" as="geometry" />
        </mxCell>
        <mxCell id="AD9h0x3ZnpMd-QSPCWr3-184" value="&lt;div style=&quot;box-sizing:border-box;width:100%;background:#e4e4e4;padding:2px;&quot;&gt;Educator&lt;/div&gt;&lt;table style=&quot;width:100%;font-size:1em;&quot; cellpadding=&quot;2&quot; cellspacing=&quot;0&quot;&gt;&lt;tbody&gt;&lt;tr&gt;&lt;td&gt;&lt;u&gt;educatorID&lt;/u&gt;&lt;/td&gt;&lt;td&gt;int&lt;/td&gt;&lt;/tr&gt;&lt;tr&gt;&lt;td&gt;name&lt;br&gt;surname&lt;br&gt;username&lt;br&gt;email&amp;nbsp;&lt;br&gt;telephone&lt;br&gt;verificationCode&lt;br style=&quot;border-color: var(--border-color);&quot;&gt;token&lt;br style=&quot;border-color: var(--border-color);&quot;&gt;bio&lt;br&gt;&lt;/td&gt;&lt;td&gt;varchar(32)&lt;br&gt;varchar(32)&lt;br&gt;varchar(64)&lt;br&gt;varchar(64)&lt;br&gt;varchar(16)&lt;br&gt;varchar(8)&lt;br style=&quot;border-color: var(--border-color);&quot;&gt;varchar(64)&lt;br style=&quot;border-color: var(--border-color);&quot;&gt;varchar(1024)&lt;br&gt;&lt;/td&gt;&lt;/tr&gt;&lt;tr&gt;&lt;td&gt;&lt;/td&gt;&lt;td&gt;&lt;br&gt;&lt;/td&gt;&lt;/tr&gt;&lt;/tbody&gt;&lt;/table&gt;" style="verticalAlign=top;align=left;overflow=fill;html=1;whiteSpace=wrap;" vertex="1" parent="1">
          <mxGeometry x="-2230" y="1627.5" width="180" height="152.5" as="geometry" />
        </mxCell>
        <mxCell id="AD9h0x3ZnpMd-QSPCWr3-185" value="&lt;div style=&quot;box-sizing:border-box;width:100%;background:#e4e4e4;padding:2px;&quot;&gt;Battle&lt;/div&gt;&lt;table style=&quot;width:100%;font-size:1em;&quot; cellpadding=&quot;2&quot; cellspacing=&quot;0&quot;&gt;&lt;tbody&gt;&lt;tr&gt;&lt;td&gt;&lt;u&gt;battleID&lt;/u&gt;&lt;/td&gt;&lt;td&gt;int&lt;/td&gt;&lt;/tr&gt;&lt;tr&gt;&lt;td&gt;registrationDeadline&lt;br&gt;submissionDeadline&lt;br&gt;programmingLanguage&lt;br&gt;repositoryURL&lt;br&gt;codeKataTitle&lt;br style=&quot;border-color: var(--border-color);&quot;&gt;codeKataDescription&lt;br&gt;creator&lt;br&gt;tournament&lt;br&gt;&lt;/td&gt;&lt;td&gt;date&lt;br&gt;date&lt;br&gt;varchar(32)&lt;br&gt;varchar(32)&lt;br&gt;varchar(32)&lt;br style=&quot;border-color: var(--border-color);&quot;&gt;varchar(1024)&lt;br&gt;int&lt;br&gt;int&lt;br&gt;&lt;/td&gt;&lt;/tr&gt;&lt;tr&gt;&lt;td&gt;&lt;br&gt;&lt;/td&gt;&lt;td&gt;&lt;br&gt;&lt;/td&gt;&lt;/tr&gt;&lt;/tbody&gt;&lt;/table&gt;" style="verticalAlign=top;align=left;overflow=fill;html=1;whiteSpace=wrap;" vertex="1" parent="1">
          <mxGeometry x="-1560.03" y="1282.5" width="240.06" height="160" as="geometry" />
        </mxCell>
        <mxCell id="4x0ez4NX0Yn1UyqmOjq3-1" value="Educator&lt;br&gt;Web App" style="html=1;dropTarget=0;whiteSpace=wrap;" vertex="1" parent="1">
          <mxGeometry x="-200" y="1300" width="120" height="80" as="geometry" />
        </mxCell>
        <mxCell id="4x0ez4NX0Yn1UyqmOjq3-2" value="" style="shape=module;jettyWidth=8;jettyHeight=4;" vertex="1" parent="4x0ez4NX0Yn1UyqmOjq3-1">
          <mxGeometry x="1" width="20" height="20" relative="1" as="geometry">
            <mxPoint x="-27" y="7" as="offset" />
          </mxGeometry>
        </mxCell>
        <mxCell id="4x0ez4NX0Yn1UyqmOjq3-4" value="" style="rounded=0;orthogonalLoop=1;jettySize=auto;html=1;endArrow=halfCircle;endFill=0;endSize=6;strokeWidth=1;sketch=0;" edge="1" parent="1" target="4x0ez4NX0Yn1UyqmOjq3-6">
          <mxGeometry relative="1" as="geometry">
            <mxPoint x="-40" y="1240" as="sourcePoint" />
            <Array as="points" />
          </mxGeometry>
        </mxCell>
        <mxCell id="4x0ez4NX0Yn1UyqmOjq3-5" value="" style="rounded=0;orthogonalLoop=1;jettySize=auto;html=1;endArrow=oval;endFill=0;sketch=0;sourcePerimeterSpacing=0;targetPerimeterSpacing=0;endSize=10;exitX=0;exitY=0.5;exitDx=0;exitDy=0;" edge="1" parent="1" source="4x0ez4NX0Yn1UyqmOjq3-39" target="4x0ez4NX0Yn1UyqmOjq3-6">
          <mxGeometry relative="1" as="geometry">
            <mxPoint x="180" y="1305" as="sourcePoint" />
            <Array as="points">
              <mxPoint x="100" y="1240" />
            </Array>
          </mxGeometry>
        </mxCell>
        <mxCell id="4x0ez4NX0Yn1UyqmOjq3-6" value="" style="ellipse;whiteSpace=wrap;html=1;align=center;aspect=fixed;fillColor=none;strokeColor=none;resizable=0;perimeter=centerPerimeter;rotatable=0;allowArrows=0;points=[];outlineConnect=1;" vertex="1" parent="1">
          <mxGeometry x="75" y="1235" width="10" height="10" as="geometry" />
        </mxCell>
        <mxCell id="4x0ez4NX0Yn1UyqmOjq3-7" value="" style="rounded=0;orthogonalLoop=1;jettySize=auto;html=1;endArrow=halfCircle;endFill=0;endSize=6;strokeWidth=1;sketch=0;" edge="1" parent="1" target="4x0ez4NX0Yn1UyqmOjq3-9">
          <mxGeometry relative="1" as="geometry">
            <mxPoint x="-40" y="1440" as="sourcePoint" />
            <Array as="points" />
          </mxGeometry>
        </mxCell>
        <mxCell id="4x0ez4NX0Yn1UyqmOjq3-8" value="" style="rounded=0;orthogonalLoop=1;jettySize=auto;html=1;endArrow=oval;endFill=0;sketch=0;sourcePerimeterSpacing=0;targetPerimeterSpacing=0;endSize=10;exitX=0;exitY=0.5;exitDx=0;exitDy=0;" edge="1" parent="1" source="4x0ez4NX0Yn1UyqmOjq3-37" target="4x0ez4NX0Yn1UyqmOjq3-9">
          <mxGeometry relative="1" as="geometry">
            <mxPoint x="180" y="1340" as="sourcePoint" />
            <Array as="points">
              <mxPoint x="100" y="1440" />
            </Array>
          </mxGeometry>
        </mxCell>
        <mxCell id="4x0ez4NX0Yn1UyqmOjq3-9" value="" style="ellipse;whiteSpace=wrap;html=1;align=center;aspect=fixed;fillColor=none;strokeColor=none;resizable=0;perimeter=centerPerimeter;rotatable=0;allowArrows=0;points=[];outlineConnect=1;" vertex="1" parent="1">
          <mxGeometry x="75" y="1435" width="10" height="10" as="geometry" />
        </mxCell>
        <mxCell id="4x0ez4NX0Yn1UyqmOjq3-10" value="" style="rounded=0;orthogonalLoop=1;jettySize=auto;html=1;endArrow=halfCircle;endFill=0;endSize=6;strokeWidth=1;sketch=0;" edge="1" parent="1" target="4x0ez4NX0Yn1UyqmOjq3-12">
          <mxGeometry relative="1" as="geometry">
            <mxPoint x="-40" y="1340" as="sourcePoint" />
            <Array as="points">
              <mxPoint x="-40" y="1140" />
            </Array>
          </mxGeometry>
        </mxCell>
        <mxCell id="4x0ez4NX0Yn1UyqmOjq3-11" value="" style="rounded=0;orthogonalLoop=1;jettySize=auto;html=1;endArrow=oval;endFill=0;sketch=0;sourcePerimeterSpacing=0;targetPerimeterSpacing=0;endSize=10;exitX=0;exitY=0.5;exitDx=0;exitDy=0;" edge="1" parent="1" source="4x0ez4NX0Yn1UyqmOjq3-40" target="4x0ez4NX0Yn1UyqmOjq3-12">
          <mxGeometry relative="1" as="geometry">
            <mxPoint x="190" y="1265" as="sourcePoint" />
            <Array as="points">
              <mxPoint x="160" y="1140" />
              <mxPoint x="140" y="1140" />
              <mxPoint x="130" y="1140" />
            </Array>
          </mxGeometry>
        </mxCell>
        <mxCell id="4x0ez4NX0Yn1UyqmOjq3-12" value="" style="ellipse;whiteSpace=wrap;html=1;align=center;aspect=fixed;fillColor=none;strokeColor=none;resizable=0;perimeter=centerPerimeter;rotatable=0;allowArrows=0;points=[];outlineConnect=1;" vertex="1" parent="1">
          <mxGeometry x="75" y="1135" width="10" height="10" as="geometry" />
        </mxCell>
        <mxCell id="4x0ez4NX0Yn1UyqmOjq3-13" value="" style="rounded=0;orthogonalLoop=1;jettySize=auto;html=1;endArrow=halfCircle;endFill=0;endSize=6;strokeWidth=1;sketch=0;exitX=1;exitY=0.5;exitDx=0;exitDy=0;entryX=0.255;entryY=0.161;entryDx=0;entryDy=0;entryPerimeter=0;" edge="1" parent="1" source="4x0ez4NX0Yn1UyqmOjq3-1" target="4x0ez4NX0Yn1UyqmOjq3-15">
          <mxGeometry relative="1" as="geometry">
            <mxPoint x="-40" y="1345" as="sourcePoint" />
            <Array as="points">
              <mxPoint x="-30" y="1340" />
            </Array>
            <mxPoint x="80" y="1320" as="targetPoint" />
          </mxGeometry>
        </mxCell>
        <mxCell id="4x0ez4NX0Yn1UyqmOjq3-14" value="" style="rounded=0;orthogonalLoop=1;jettySize=auto;html=1;endArrow=oval;endFill=0;sketch=0;sourcePerimeterSpacing=0;targetPerimeterSpacing=0;endSize=10;exitX=0;exitY=0.5;exitDx=0;exitDy=0;entryX=0.5;entryY=0;entryDx=0;entryDy=0;entryPerimeter=0;" edge="1" parent="1" source="4x0ez4NX0Yn1UyqmOjq3-3" target="4x0ez4NX0Yn1UyqmOjq3-15">
          <mxGeometry relative="1" as="geometry">
            <mxPoint x="180" y="1320" as="sourcePoint" />
            <Array as="points">
              <mxPoint x="200" y="1340" />
              <mxPoint x="90" y="1340" />
            </Array>
            <mxPoint x="80" y="1320" as="targetPoint" />
          </mxGeometry>
        </mxCell>
        <mxCell id="4x0ez4NX0Yn1UyqmOjq3-15" value="" style="ellipse;whiteSpace=wrap;html=1;align=center;aspect=fixed;fillColor=none;strokeColor=none;resizable=0;perimeter=centerPerimeter;rotatable=0;allowArrows=0;points=[];outlineConnect=1;" vertex="1" parent="1">
          <mxGeometry x="75" y="1335" width="10" height="10" as="geometry" />
        </mxCell>
        <mxCell id="4x0ez4NX0Yn1UyqmOjq3-16" value="Educator Account Manager Interface" style="text;html=1;strokeColor=none;fillColor=none;align=center;verticalAlign=middle;whiteSpace=wrap;rounded=0;" vertex="1" parent="1">
          <mxGeometry x="-40" y="1110" width="240" height="20" as="geometry" />
        </mxCell>
        <mxCell id="4x0ez4NX0Yn1UyqmOjq3-17" value="Tournament Manager Interface" style="text;html=1;strokeColor=none;fillColor=none;align=center;verticalAlign=middle;whiteSpace=wrap;rounded=0;" vertex="1" parent="1">
          <mxGeometry x="-40" y="1210" width="240" height="20" as="geometry" />
        </mxCell>
        <mxCell id="4x0ez4NX0Yn1UyqmOjq3-19" value="Educator Profile Manager Interface" style="text;html=1;strokeColor=none;fillColor=none;align=center;verticalAlign=middle;whiteSpace=wrap;rounded=0;" vertex="1" parent="1">
          <mxGeometry x="-40" y="1410" width="240" height="20" as="geometry" />
        </mxCell>
        <mxCell id="4x0ez4NX0Yn1UyqmOjq3-20" value="" style="rounded=0;orthogonalLoop=1;jettySize=auto;html=1;endArrow=halfCircle;endFill=0;endSize=6;strokeWidth=1;sketch=0;" edge="1" parent="1" target="4x0ez4NX0Yn1UyqmOjq3-22">
          <mxGeometry relative="1" as="geometry">
            <mxPoint x="-40" y="1340" as="sourcePoint" />
            <Array as="points">
              <mxPoint x="-40" y="1540" />
            </Array>
          </mxGeometry>
        </mxCell>
        <mxCell id="4x0ez4NX0Yn1UyqmOjq3-21" value="" style="rounded=0;orthogonalLoop=1;jettySize=auto;html=1;endArrow=oval;endFill=0;sketch=0;sourcePerimeterSpacing=0;targetPerimeterSpacing=0;endSize=10;exitX=0;exitY=0.5;exitDx=0;exitDy=0;" edge="1" parent="1" source="4x0ez4NX0Yn1UyqmOjq3-38" target="4x0ez4NX0Yn1UyqmOjq3-22">
          <mxGeometry relative="1" as="geometry">
            <mxPoint x="190" y="1425" as="sourcePoint" />
            <Array as="points">
              <mxPoint x="180" y="1540" />
              <mxPoint x="120" y="1540" />
            </Array>
          </mxGeometry>
        </mxCell>
        <mxCell id="4x0ez4NX0Yn1UyqmOjq3-22" value="" style="ellipse;whiteSpace=wrap;html=1;align=center;aspect=fixed;fillColor=none;strokeColor=none;resizable=0;perimeter=centerPerimeter;rotatable=0;allowArrows=0;points=[];outlineConnect=1;" vertex="1" parent="1">
          <mxGeometry x="75" y="1535" width="10" height="10" as="geometry" />
        </mxCell>
        <mxCell id="4x0ez4NX0Yn1UyqmOjq3-23" value="Educator Research Interface" style="text;html=1;strokeColor=none;fillColor=none;align=center;verticalAlign=middle;whiteSpace=wrap;rounded=0;" vertex="1" parent="1">
          <mxGeometry x="-40" y="1510" width="240" height="20" as="geometry" />
        </mxCell>
        <mxCell id="4x0ez4NX0Yn1UyqmOjq3-24" value="Educator Manager" style="shape=umlFrame;whiteSpace=wrap;html=1;pointerEvents=0;width=110;height=20;" vertex="1" parent="1">
          <mxGeometry x="210" y="1070" width="540" height="630" as="geometry" />
        </mxCell>
        <mxCell id="4x0ez4NX0Yn1UyqmOjq3-25" value="Battle &lt;br&gt;Manager" style="html=1;dropTarget=0;whiteSpace=wrap;" vertex="1" parent="1">
          <mxGeometry x="270" y="1300" width="120" height="80" as="geometry" />
        </mxCell>
        <mxCell id="4x0ez4NX0Yn1UyqmOjq3-26" value="" style="shape=module;jettyWidth=8;jettyHeight=4;" vertex="1" parent="4x0ez4NX0Yn1UyqmOjq3-25">
          <mxGeometry x="1" width="20" height="20" relative="1" as="geometry">
            <mxPoint x="-27" y="7" as="offset" />
          </mxGeometry>
        </mxCell>
        <mxCell id="4x0ez4NX0Yn1UyqmOjq3-27" value="Tournament &lt;br&gt;Manager" style="html=1;dropTarget=0;whiteSpace=wrap;" vertex="1" parent="1">
          <mxGeometry x="270" y="1200" width="120" height="80" as="geometry" />
        </mxCell>
        <mxCell id="4x0ez4NX0Yn1UyqmOjq3-28" value="" style="shape=module;jettyWidth=8;jettyHeight=4;" vertex="1" parent="4x0ez4NX0Yn1UyqmOjq3-27">
          <mxGeometry x="1" width="20" height="20" relative="1" as="geometry">
            <mxPoint x="-27" y="7" as="offset" />
          </mxGeometry>
        </mxCell>
        <mxCell id="4x0ez4NX0Yn1UyqmOjq3-29" value="Educator&lt;br&gt;Profile &lt;br&gt;Manager" style="html=1;dropTarget=0;whiteSpace=wrap;" vertex="1" parent="1">
          <mxGeometry x="270" y="1400" width="120" height="80" as="geometry" />
        </mxCell>
        <mxCell id="4x0ez4NX0Yn1UyqmOjq3-30" value="" style="shape=module;jettyWidth=8;jettyHeight=4;" vertex="1" parent="4x0ez4NX0Yn1UyqmOjq3-29">
          <mxGeometry x="1" width="20" height="20" relative="1" as="geometry">
            <mxPoint x="-27" y="7" as="offset" />
          </mxGeometry>
        </mxCell>
        <mxCell id="4x0ez4NX0Yn1UyqmOjq3-31" value="Educator&lt;br&gt;Account &lt;br&gt;Manager" style="html=1;dropTarget=0;whiteSpace=wrap;" vertex="1" parent="1">
          <mxGeometry x="270" y="1100" width="120" height="80" as="geometry" />
        </mxCell>
        <mxCell id="4x0ez4NX0Yn1UyqmOjq3-32" value="" style="shape=module;jettyWidth=8;jettyHeight=4;" vertex="1" parent="4x0ez4NX0Yn1UyqmOjq3-31">
          <mxGeometry x="1" width="20" height="20" relative="1" as="geometry">
            <mxPoint x="-27" y="7" as="offset" />
          </mxGeometry>
        </mxCell>
        <mxCell id="4x0ez4NX0Yn1UyqmOjq3-33" value="Educator&lt;br&gt;Research &lt;br&gt;Manager" style="html=1;dropTarget=0;whiteSpace=wrap;" vertex="1" parent="1">
          <mxGeometry x="270" y="1500" width="120" height="80" as="geometry" />
        </mxCell>
        <mxCell id="4x0ez4NX0Yn1UyqmOjq3-34" value="" style="shape=module;jettyWidth=8;jettyHeight=4;" vertex="1" parent="4x0ez4NX0Yn1UyqmOjq3-33">
          <mxGeometry x="1" width="20" height="20" relative="1" as="geometry">
            <mxPoint x="-27" y="7" as="offset" />
          </mxGeometry>
        </mxCell>
        <mxCell id="4x0ez4NX0Yn1UyqmOjq3-37" value="" style="rounded=0;whiteSpace=wrap;html=1;" vertex="1" parent="1">
          <mxGeometry x="200" y="1430" width="20" height="20" as="geometry" />
        </mxCell>
        <mxCell id="4x0ez4NX0Yn1UyqmOjq3-38" value="" style="rounded=0;whiteSpace=wrap;html=1;" vertex="1" parent="1">
          <mxGeometry x="200" y="1530" width="20" height="20" as="geometry" />
        </mxCell>
        <mxCell id="4x0ez4NX0Yn1UyqmOjq3-39" value="" style="rounded=0;whiteSpace=wrap;html=1;" vertex="1" parent="1">
          <mxGeometry x="200" y="1230" width="20" height="20" as="geometry" />
        </mxCell>
        <mxCell id="4x0ez4NX0Yn1UyqmOjq3-40" value="" style="rounded=0;whiteSpace=wrap;html=1;" vertex="1" parent="1">
          <mxGeometry x="200" y="1130" width="20" height="20" as="geometry" />
        </mxCell>
        <mxCell id="7CF9CsB8fa3hAw0vR7Yd-1" value="" style="endArrow=none;html=1;rounded=0;exitX=1;exitY=0.5;exitDx=0;exitDy=0;entryX=0;entryY=0.5;entryDx=0;entryDy=0;" edge="1" parent="1" source="4x0ez4NX0Yn1UyqmOjq3-37" target="4x0ez4NX0Yn1UyqmOjq3-29">
          <mxGeometry width="50" height="50" relative="1" as="geometry">
            <mxPoint x="280" y="1420" as="sourcePoint" />
            <mxPoint x="330" y="1370" as="targetPoint" />
          </mxGeometry>
        </mxCell>
        <mxCell id="7CF9CsB8fa3hAw0vR7Yd-2" value="" style="endArrow=none;html=1;rounded=0;exitX=1;exitY=0.5;exitDx=0;exitDy=0;entryX=0;entryY=0.5;entryDx=0;entryDy=0;" edge="1" parent="1">
          <mxGeometry width="50" height="50" relative="1" as="geometry">
            <mxPoint x="220" y="1540" as="sourcePoint" />
            <mxPoint x="270" y="1540" as="targetPoint" />
          </mxGeometry>
        </mxCell>
        <mxCell id="7CF9CsB8fa3hAw0vR7Yd-3" value="" style="endArrow=none;html=1;rounded=0;exitX=1;exitY=0.5;exitDx=0;exitDy=0;entryX=0;entryY=0.5;entryDx=0;entryDy=0;" edge="1" parent="1">
          <mxGeometry width="50" height="50" relative="1" as="geometry">
            <mxPoint x="220" y="1339.71" as="sourcePoint" />
            <mxPoint x="270" y="1339.71" as="targetPoint" />
          </mxGeometry>
        </mxCell>
        <mxCell id="7CF9CsB8fa3hAw0vR7Yd-4" value="" style="endArrow=none;html=1;rounded=0;exitX=1;exitY=0.5;exitDx=0;exitDy=0;entryX=0;entryY=0.5;entryDx=0;entryDy=0;" edge="1" parent="1">
          <mxGeometry width="50" height="50" relative="1" as="geometry">
            <mxPoint x="220" y="1240" as="sourcePoint" />
            <mxPoint x="270" y="1240" as="targetPoint" />
          </mxGeometry>
        </mxCell>
        <mxCell id="7CF9CsB8fa3hAw0vR7Yd-5" value="" style="endArrow=none;html=1;rounded=0;exitX=1;exitY=0.5;exitDx=0;exitDy=0;entryX=0;entryY=0.5;entryDx=0;entryDy=0;" edge="1" parent="1">
          <mxGeometry width="50" height="50" relative="1" as="geometry">
            <mxPoint x="220" y="1139.9" as="sourcePoint" />
            <mxPoint x="270" y="1139.9" as="targetPoint" />
          </mxGeometry>
        </mxCell>
        <mxCell id="7CF9CsB8fa3hAw0vR7Yd-10" value="" style="rounded=0;orthogonalLoop=1;jettySize=auto;html=1;endArrow=halfCircle;endFill=0;endSize=6;strokeWidth=1;sketch=0;exitX=1;exitY=0.25;exitDx=0;exitDy=0;" edge="1" parent="1" source="4x0ez4NX0Yn1UyqmOjq3-27" target="7CF9CsB8fa3hAw0vR7Yd-12">
          <mxGeometry relative="1" as="geometry">
            <mxPoint x="460" y="1200" as="sourcePoint" />
            <Array as="points">
              <mxPoint x="460" y="1220" />
              <mxPoint x="460" y="1120" />
            </Array>
          </mxGeometry>
        </mxCell>
        <mxCell id="7CF9CsB8fa3hAw0vR7Yd-11" value="" style="rounded=0;orthogonalLoop=1;jettySize=auto;html=1;endArrow=oval;endFill=0;sketch=0;sourcePerimeterSpacing=0;targetPerimeterSpacing=0;endSize=10;exitX=1;exitY=0.25;exitDx=0;exitDy=0;" edge="1" parent="1" source="4x0ez4NX0Yn1UyqmOjq3-31" target="7CF9CsB8fa3hAw0vR7Yd-12">
          <mxGeometry relative="1" as="geometry">
            <mxPoint x="400" y="1145" as="sourcePoint" />
          </mxGeometry>
        </mxCell>
        <mxCell id="7CF9CsB8fa3hAw0vR7Yd-12" value="" style="ellipse;whiteSpace=wrap;html=1;align=center;aspect=fixed;fillColor=none;strokeColor=none;resizable=0;perimeter=centerPerimeter;rotatable=0;allowArrows=0;points=[];outlineConnect=1;" vertex="1" parent="1">
          <mxGeometry x="421.21" y="1115" width="10" height="10" as="geometry" />
        </mxCell>
        <mxCell id="7CF9CsB8fa3hAw0vR7Yd-13" value="" style="endArrow=none;html=1;rounded=0;entryX=1;entryY=0.25;entryDx=0;entryDy=0;" edge="1" parent="1" target="4x0ez4NX0Yn1UyqmOjq3-25">
          <mxGeometry width="50" height="50" relative="1" as="geometry">
            <mxPoint x="460" y="1220" as="sourcePoint" />
            <mxPoint x="330" y="1250" as="targetPoint" />
            <Array as="points">
              <mxPoint x="460" y="1320" />
            </Array>
          </mxGeometry>
        </mxCell>
        <mxCell id="7CF9CsB8fa3hAw0vR7Yd-14" value="" style="endArrow=none;html=1;rounded=0;entryX=1;entryY=0.25;entryDx=0;entryDy=0;" edge="1" parent="1">
          <mxGeometry width="50" height="50" relative="1" as="geometry">
            <mxPoint x="460" y="1320" as="sourcePoint" />
            <mxPoint x="390" y="1420" as="targetPoint" />
            <Array as="points">
              <mxPoint x="460" y="1420" />
            </Array>
          </mxGeometry>
        </mxCell>
        <mxCell id="7CF9CsB8fa3hAw0vR7Yd-15" value="" style="endArrow=none;html=1;rounded=0;entryX=1;entryY=0.25;entryDx=0;entryDy=0;" edge="1" parent="1">
          <mxGeometry width="50" height="50" relative="1" as="geometry">
            <mxPoint x="460" y="1420" as="sourcePoint" />
            <mxPoint x="390" y="1520" as="targetPoint" />
            <Array as="points">
              <mxPoint x="460" y="1520" />
            </Array>
          </mxGeometry>
        </mxCell>
        <mxCell id="7CF9CsB8fa3hAw0vR7Yd-16" value="Query &lt;br&gt;Manager" style="html=1;dropTarget=0;whiteSpace=wrap;" vertex="1" parent="1">
          <mxGeometry x="600" y="1300" width="120" height="80" as="geometry" />
        </mxCell>
        <mxCell id="7CF9CsB8fa3hAw0vR7Yd-17" value="" style="shape=module;jettyWidth=8;jettyHeight=4;" vertex="1" parent="7CF9CsB8fa3hAw0vR7Yd-16">
          <mxGeometry x="1" width="20" height="20" relative="1" as="geometry">
            <mxPoint x="-27" y="7" as="offset" />
          </mxGeometry>
        </mxCell>
        <mxCell id="7CF9CsB8fa3hAw0vR7Yd-18" value="" style="rounded=0;orthogonalLoop=1;jettySize=auto;html=1;endArrow=halfCircle;endFill=0;endSize=6;strokeWidth=1;sketch=0;exitX=1;exitY=0.5;exitDx=0;exitDy=0;strokeColor=#999999;" edge="1" parent="1" source="4x0ez4NX0Yn1UyqmOjq3-25" target="7CF9CsB8fa3hAw0vR7Yd-20">
          <mxGeometry relative="1" as="geometry">
            <mxPoint x="480" y="1340" as="sourcePoint" />
          </mxGeometry>
        </mxCell>
        <mxCell id="7CF9CsB8fa3hAw0vR7Yd-19" value="" style="rounded=0;orthogonalLoop=1;jettySize=auto;html=1;endArrow=oval;endFill=0;sketch=0;sourcePerimeterSpacing=0;targetPerimeterSpacing=0;endSize=10;exitX=0;exitY=0.5;exitDx=0;exitDy=0;strokeColor=#999999;" edge="1" parent="1" source="7CF9CsB8fa3hAw0vR7Yd-16" target="7CF9CsB8fa3hAw0vR7Yd-20">
          <mxGeometry relative="1" as="geometry">
            <mxPoint x="580" y="1340" as="sourcePoint" />
          </mxGeometry>
        </mxCell>
        <mxCell id="7CF9CsB8fa3hAw0vR7Yd-20" value="" style="ellipse;whiteSpace=wrap;html=1;align=center;aspect=fixed;fillColor=none;strokeColor=none;resizable=0;perimeter=centerPerimeter;rotatable=0;allowArrows=0;points=[];outlineConnect=1;" vertex="1" parent="1">
          <mxGeometry x="535" y="1335" width="10" height="10" as="geometry" />
        </mxCell>
        <mxCell id="7CF9CsB8fa3hAw0vR7Yd-21" value="" style="endArrow=none;html=1;rounded=0;entryX=1;entryY=0.5;entryDx=0;entryDy=0;exitX=1;exitY=0.5;exitDx=0;exitDy=0;strokeColor=#999999;" edge="1" parent="1" source="4x0ez4NX0Yn1UyqmOjq3-29" target="4x0ez4NX0Yn1UyqmOjq3-27">
          <mxGeometry width="50" height="50" relative="1" as="geometry">
            <mxPoint x="370" y="1350" as="sourcePoint" />
            <mxPoint x="420" y="1300" as="targetPoint" />
            <Array as="points">
              <mxPoint x="480" y="1440" />
              <mxPoint x="480" y="1240" />
            </Array>
          </mxGeometry>
        </mxCell>
        <mxCell id="7CF9CsB8fa3hAw0vR7Yd-23" value="Query &lt;br&gt;Manager &lt;br&gt;Interface" style="text;html=1;strokeColor=none;fillColor=none;align=center;verticalAlign=middle;whiteSpace=wrap;rounded=0;" vertex="1" parent="1">
          <mxGeometry x="530.03" y="1342.5" width="69.97" height="40" as="geometry" />
        </mxCell>
        <mxCell id="7CF9CsB8fa3hAw0vR7Yd-25" value="Authentication Interface" style="text;html=1;strokeColor=none;fillColor=none;align=center;verticalAlign=middle;whiteSpace=wrap;rounded=0;" vertex="1" parent="1">
          <mxGeometry x="390" y="1075" width="70" height="40" as="geometry" />
        </mxCell>
        <mxCell id="4x0ez4NX0Yn1UyqmOjq3-3" value="" style="rounded=0;whiteSpace=wrap;html=1;" vertex="1" parent="1">
          <mxGeometry x="200" y="1330" width="20" height="20" as="geometry" />
        </mxCell>
        <mxCell id="7CF9CsB8fa3hAw0vR7Yd-26" value="" style="rounded=0;whiteSpace=wrap;html=1;" vertex="1" parent="1">
          <mxGeometry x="650.03" y="1590" width="20" height="20" as="geometry" />
        </mxCell>
        <mxCell id="7CF9CsB8fa3hAw0vR7Yd-27" value="" style="rounded=0;orthogonalLoop=1;jettySize=auto;html=1;endArrow=halfCircle;endFill=0;endSize=6;strokeWidth=1;sketch=0;exitX=0.5;exitY=1;exitDx=0;exitDy=0;" edge="1" parent="1" source="7CF9CsB8fa3hAw0vR7Yd-26" target="7CF9CsB8fa3hAw0vR7Yd-29">
          <mxGeometry relative="1" as="geometry">
            <mxPoint x="561.24" y="1530" as="sourcePoint" />
          </mxGeometry>
        </mxCell>
        <mxCell id="7CF9CsB8fa3hAw0vR7Yd-28" value="" style="rounded=0;orthogonalLoop=1;jettySize=auto;html=1;endArrow=oval;endFill=0;sketch=0;sourcePerimeterSpacing=0;targetPerimeterSpacing=0;endSize=10;exitX=1;exitY=0.5;exitDx=0;exitDy=0;" edge="1" parent="1" source="7CF9CsB8fa3hAw0vR7Yd-31" target="7CF9CsB8fa3hAw0vR7Yd-29">
          <mxGeometry relative="1" as="geometry">
            <mxPoint x="471.24" y="1800" as="sourcePoint" />
            <Array as="points">
              <mxPoint x="560" y="1800" />
              <mxPoint x="660" y="1800" />
            </Array>
          </mxGeometry>
        </mxCell>
        <mxCell id="7CF9CsB8fa3hAw0vR7Yd-29" value="" style="ellipse;whiteSpace=wrap;html=1;align=center;aspect=fixed;fillColor=none;strokeColor=none;resizable=0;perimeter=centerPerimeter;rotatable=0;allowArrows=0;points=[];outlineConnect=1;" vertex="1" parent="1">
          <mxGeometry x="655.03" y="1760" width="10" height="10" as="geometry" />
        </mxCell>
        <mxCell id="7CF9CsB8fa3hAw0vR7Yd-30" value="CodeKataBattle database" style="shape=umlFrame;whiteSpace=wrap;html=1;pointerEvents=0;width=160;height=20;" vertex="1" parent="1">
          <mxGeometry x="390" y="1730" width="180" height="120" as="geometry" />
        </mxCell>
        <mxCell id="7CF9CsB8fa3hAw0vR7Yd-31" value="Query &lt;br&gt;Manager" style="html=1;dropTarget=0;whiteSpace=wrap;" vertex="1" parent="1">
          <mxGeometry x="421.21000000000004" y="1760" width="120" height="80" as="geometry" />
        </mxCell>
        <mxCell id="7CF9CsB8fa3hAw0vR7Yd-32" value="" style="shape=module;jettyWidth=8;jettyHeight=4;" vertex="1" parent="7CF9CsB8fa3hAw0vR7Yd-31">
          <mxGeometry x="1" width="20" height="20" relative="1" as="geometry">
            <mxPoint x="-27" y="7" as="offset" />
          </mxGeometry>
        </mxCell>
        <mxCell id="7CF9CsB8fa3hAw0vR7Yd-33" value="" style="rounded=0;whiteSpace=wrap;html=1;" vertex="1" parent="1">
          <mxGeometry x="560" y="1790" width="20" height="20" as="geometry" />
        </mxCell>
        <mxCell id="7CF9CsB8fa3hAw0vR7Yd-34" value="DBMS API" style="text;html=1;strokeColor=none;fillColor=none;align=center;verticalAlign=middle;whiteSpace=wrap;rounded=0;" vertex="1" parent="1">
          <mxGeometry x="670" y="1750" width="50.03" height="30" as="geometry" />
        </mxCell>
        <mxCell id="7CF9CsB8fa3hAw0vR7Yd-36" value="" style="endArrow=none;html=1;rounded=0;entryX=0.5;entryY=0;entryDx=0;entryDy=0;" edge="1" parent="1" target="7CF9CsB8fa3hAw0vR7Yd-26">
          <mxGeometry width="50" height="50" relative="1" as="geometry">
            <mxPoint x="660.03" y="1380" as="sourcePoint" />
            <mxPoint x="590.03" y="1480" as="targetPoint" />
            <Array as="points">
              <mxPoint x="660.03" y="1480" />
            </Array>
          </mxGeometry>
        </mxCell>
        <mxCell id="7CF9CsB8fa3hAw0vR7Yd-50" value="" style="shape=providedRequiredInterface;html=1;verticalLabelPosition=bottom;sketch=0;rotation=90;fillColor=#f8cecc;strokeColor=#b85450;" vertex="1" parent="1">
          <mxGeometry x="560" y="1020" width="20" height="20" as="geometry" />
        </mxCell>
        <mxCell id="7CF9CsB8fa3hAw0vR7Yd-52" value="" style="shape=providedRequiredInterface;html=1;verticalLabelPosition=bottom;sketch=0;rotation=90;" vertex="1" parent="1">
          <mxGeometry x="640.05" y="1020" width="20" height="20" as="geometry" />
        </mxCell>
        <mxCell id="7CF9CsB8fa3hAw0vR7Yd-53" value="" style="shape=providedRequiredInterface;html=1;verticalLabelPosition=bottom;sketch=0;rotation=90;fillColor=#e1d5e7;strokeColor=#9673a6;" vertex="1" parent="1">
          <mxGeometry x="480.03000000000003" y="1020" width="20" height="20" as="geometry" />
        </mxCell>
        <mxCell id="7CF9CsB8fa3hAw0vR7Yd-56" value="" style="endArrow=none;dashed=1;html=1;rounded=0;entryX=1;entryY=0.5;entryDx=0;entryDy=0;entryPerimeter=0;exitX=1;exitY=0.75;exitDx=0;exitDy=0;fillColor=#e1d5e7;strokeColor=#9673a6;" edge="1" parent="1" source="4x0ez4NX0Yn1UyqmOjq3-31" target="7CF9CsB8fa3hAw0vR7Yd-53">
          <mxGeometry width="50" height="50" relative="1" as="geometry">
            <mxPoint x="550" y="1090" as="sourcePoint" />
            <mxPoint x="505" y="1000" as="targetPoint" />
            <Array as="points">
              <mxPoint x="490" y="1160" />
            </Array>
          </mxGeometry>
        </mxCell>
        <mxCell id="7CF9CsB8fa3hAw0vR7Yd-58" value="GitHub API" style="text;html=1;strokeColor=none;fillColor=none;align=center;verticalAlign=middle;whiteSpace=wrap;rounded=0;" vertex="1" parent="1">
          <mxGeometry x="530.03" y="990" width="80" height="30" as="geometry" />
        </mxCell>
        <mxCell id="7CF9CsB8fa3hAw0vR7Yd-60" value="Calendar API" style="text;html=1;strokeColor=none;fillColor=none;align=center;verticalAlign=middle;whiteSpace=wrap;rounded=0;" vertex="1" parent="1">
          <mxGeometry x="610.03" y="990" width="80.03" height="30" as="geometry" />
        </mxCell>
        <mxCell id="7CF9CsB8fa3hAw0vR7Yd-61" value="Email Service" style="text;html=1;strokeColor=none;fillColor=none;align=center;verticalAlign=middle;whiteSpace=wrap;rounded=0;" vertex="1" parent="1">
          <mxGeometry x="450.03" y="990" width="80" height="30" as="geometry" />
        </mxCell>
        <mxCell id="7CF9CsB8fa3hAw0vR7Yd-63" value="" style="endArrow=none;dashed=1;html=1;rounded=0;exitX=1;exitY=0.75;exitDx=0;exitDy=0;entryX=1;entryY=0.5;entryDx=0;entryDy=0;entryPerimeter=0;" edge="1" parent="1" source="nGsSVLddZj6Xyj9W1kIO-8" target="7CF9CsB8fa3hAw0vR7Yd-52">
          <mxGeometry width="50" height="50" relative="1" as="geometry">
            <mxPoint x="400" y="1270" as="sourcePoint" />
            <mxPoint x="510" y="1260" as="targetPoint" />
            <Array as="points">
              <mxPoint x="510" y="1660" />
              <mxPoint x="510" y="1360" />
              <mxPoint x="510" y="1100" />
              <mxPoint x="650" y="1100" />
            </Array>
          </mxGeometry>
        </mxCell>
        <mxCell id="7CF9CsB8fa3hAw0vR7Yd-65" value="" style="endArrow=none;html=1;rounded=0;entryX=1;entryY=0.5;entryDx=0;entryDy=0;strokeColor=#999999;" edge="1" parent="1" target="4x0ez4NX0Yn1UyqmOjq3-31">
          <mxGeometry width="50" height="50" relative="1" as="geometry">
            <mxPoint x="480" y="1240" as="sourcePoint" />
            <mxPoint x="400" y="1250" as="targetPoint" />
            <Array as="points">
              <mxPoint x="480" y="1240" />
              <mxPoint x="480" y="1140" />
            </Array>
          </mxGeometry>
        </mxCell>
        <mxCell id="7CF9CsB8fa3hAw0vR7Yd-66" value="" style="endArrow=none;dashed=1;html=1;rounded=0;fillColor=#f8cecc;strokeColor=#b85450;entryX=1;entryY=0.5;entryDx=0;entryDy=0;entryPerimeter=0;" edge="1" parent="1" target="7CF9CsB8fa3hAw0vR7Yd-50">
          <mxGeometry width="50" height="50" relative="1" as="geometry">
            <mxPoint x="500" y="1360" as="sourcePoint" />
            <mxPoint x="560" y="1000" as="targetPoint" />
            <Array as="points">
              <mxPoint x="390" y="1360" />
              <mxPoint x="500" y="1360" />
              <mxPoint x="500" y="1090" />
              <mxPoint x="570" y="1090" />
            </Array>
          </mxGeometry>
        </mxCell>
        <mxCell id="7CF9CsB8fa3hAw0vR7Yd-70" value="" style="rounded=0;whiteSpace=wrap;html=1;" vertex="1" parent="1">
          <mxGeometry x="560.03" y="1060" width="20" height="20" as="geometry" />
        </mxCell>
        <mxCell id="7CF9CsB8fa3hAw0vR7Yd-71" value="" style="rounded=0;whiteSpace=wrap;html=1;" vertex="1" parent="1">
          <mxGeometry x="480" y="1060" width="20" height="20" as="geometry" />
        </mxCell>
        <mxCell id="7CF9CsB8fa3hAw0vR7Yd-72" value="Battle Manager Interface" style="text;html=1;strokeColor=none;fillColor=none;align=center;verticalAlign=middle;whiteSpace=wrap;rounded=0;" vertex="1" parent="1">
          <mxGeometry x="-40" y="1310" width="240" height="20" as="geometry" />
        </mxCell>
        <mxCell id="7CF9CsB8fa3hAw0vR7Yd-73" value="Student&lt;br&gt;Web App" style="html=1;dropTarget=0;whiteSpace=wrap;" vertex="1" parent="1">
          <mxGeometry x="840" y="1240" width="120" height="80" as="geometry" />
        </mxCell>
        <mxCell id="7CF9CsB8fa3hAw0vR7Yd-74" value="" style="shape=module;jettyWidth=8;jettyHeight=4;" vertex="1" parent="7CF9CsB8fa3hAw0vR7Yd-73">
          <mxGeometry x="1" width="20" height="20" relative="1" as="geometry">
            <mxPoint x="-27" y="7" as="offset" />
          </mxGeometry>
        </mxCell>
        <mxCell id="7CF9CsB8fa3hAw0vR7Yd-75" value="" style="rounded=0;orthogonalLoop=1;jettySize=auto;html=1;endArrow=halfCircle;endFill=0;endSize=6;strokeWidth=1;sketch=0;" edge="1" parent="1" target="7CF9CsB8fa3hAw0vR7Yd-77">
          <mxGeometry relative="1" as="geometry">
            <mxPoint x="1000" y="1180" as="sourcePoint" />
            <Array as="points" />
          </mxGeometry>
        </mxCell>
        <mxCell id="7CF9CsB8fa3hAw0vR7Yd-76" value="" style="rounded=0;orthogonalLoop=1;jettySize=auto;html=1;endArrow=oval;endFill=0;sketch=0;sourcePerimeterSpacing=0;targetPerimeterSpacing=0;endSize=10;exitX=0;exitY=0.5;exitDx=0;exitDy=0;" edge="1" parent="1" source="7CF9CsB8fa3hAw0vR7Yd-107" target="7CF9CsB8fa3hAw0vR7Yd-77">
          <mxGeometry relative="1" as="geometry">
            <mxPoint x="1220" y="1245" as="sourcePoint" />
            <Array as="points">
              <mxPoint x="1140" y="1180" />
            </Array>
          </mxGeometry>
        </mxCell>
        <mxCell id="7CF9CsB8fa3hAw0vR7Yd-77" value="" style="ellipse;whiteSpace=wrap;html=1;align=center;aspect=fixed;fillColor=none;strokeColor=none;resizable=0;perimeter=centerPerimeter;rotatable=0;allowArrows=0;points=[];outlineConnect=1;" vertex="1" parent="1">
          <mxGeometry x="1115" y="1175" width="10" height="10" as="geometry" />
        </mxCell>
        <mxCell id="7CF9CsB8fa3hAw0vR7Yd-78" value="" style="rounded=0;orthogonalLoop=1;jettySize=auto;html=1;endArrow=halfCircle;endFill=0;endSize=6;strokeWidth=1;sketch=0;" edge="1" parent="1" target="7CF9CsB8fa3hAw0vR7Yd-80">
          <mxGeometry relative="1" as="geometry">
            <mxPoint x="1000" y="1380" as="sourcePoint" />
            <Array as="points" />
          </mxGeometry>
        </mxCell>
        <mxCell id="7CF9CsB8fa3hAw0vR7Yd-79" value="" style="rounded=0;orthogonalLoop=1;jettySize=auto;html=1;endArrow=oval;endFill=0;sketch=0;sourcePerimeterSpacing=0;targetPerimeterSpacing=0;endSize=10;exitX=0;exitY=0.5;exitDx=0;exitDy=0;" edge="1" parent="1" source="7CF9CsB8fa3hAw0vR7Yd-105" target="7CF9CsB8fa3hAw0vR7Yd-80">
          <mxGeometry relative="1" as="geometry">
            <mxPoint x="1220" y="1280" as="sourcePoint" />
            <Array as="points">
              <mxPoint x="1140" y="1380" />
            </Array>
          </mxGeometry>
        </mxCell>
        <mxCell id="7CF9CsB8fa3hAw0vR7Yd-80" value="" style="ellipse;whiteSpace=wrap;html=1;align=center;aspect=fixed;fillColor=none;strokeColor=none;resizable=0;perimeter=centerPerimeter;rotatable=0;allowArrows=0;points=[];outlineConnect=1;" vertex="1" parent="1">
          <mxGeometry x="1115" y="1375" width="10" height="10" as="geometry" />
        </mxCell>
        <mxCell id="7CF9CsB8fa3hAw0vR7Yd-81" value="" style="rounded=0;orthogonalLoop=1;jettySize=auto;html=1;endArrow=halfCircle;endFill=0;endSize=6;strokeWidth=1;sketch=0;" edge="1" parent="1" target="7CF9CsB8fa3hAw0vR7Yd-83">
          <mxGeometry relative="1" as="geometry">
            <mxPoint x="1000" y="1280" as="sourcePoint" />
            <Array as="points">
              <mxPoint x="1000" y="1080" />
            </Array>
          </mxGeometry>
        </mxCell>
        <mxCell id="7CF9CsB8fa3hAw0vR7Yd-82" value="" style="rounded=0;orthogonalLoop=1;jettySize=auto;html=1;endArrow=oval;endFill=0;sketch=0;sourcePerimeterSpacing=0;targetPerimeterSpacing=0;endSize=10;exitX=0;exitY=0.5;exitDx=0;exitDy=0;" edge="1" parent="1" source="7CF9CsB8fa3hAw0vR7Yd-108" target="7CF9CsB8fa3hAw0vR7Yd-83">
          <mxGeometry relative="1" as="geometry">
            <mxPoint x="1230" y="1205" as="sourcePoint" />
            <Array as="points">
              <mxPoint x="1200" y="1080" />
              <mxPoint x="1180" y="1080" />
              <mxPoint x="1170" y="1080" />
            </Array>
          </mxGeometry>
        </mxCell>
        <mxCell id="7CF9CsB8fa3hAw0vR7Yd-83" value="" style="ellipse;whiteSpace=wrap;html=1;align=center;aspect=fixed;fillColor=none;strokeColor=none;resizable=0;perimeter=centerPerimeter;rotatable=0;allowArrows=0;points=[];outlineConnect=1;" vertex="1" parent="1">
          <mxGeometry x="1115" y="1075" width="10" height="10" as="geometry" />
        </mxCell>
        <mxCell id="7CF9CsB8fa3hAw0vR7Yd-84" value="" style="rounded=0;orthogonalLoop=1;jettySize=auto;html=1;endArrow=halfCircle;endFill=0;endSize=6;strokeWidth=1;sketch=0;exitX=1;exitY=0.5;exitDx=0;exitDy=0;entryX=0.255;entryY=0.161;entryDx=0;entryDy=0;entryPerimeter=0;" edge="1" parent="1" source="7CF9CsB8fa3hAw0vR7Yd-73" target="7CF9CsB8fa3hAw0vR7Yd-86">
          <mxGeometry relative="1" as="geometry">
            <mxPoint x="1000" y="1285" as="sourcePoint" />
            <Array as="points">
              <mxPoint x="1010" y="1280" />
            </Array>
            <mxPoint x="1120" y="1260" as="targetPoint" />
          </mxGeometry>
        </mxCell>
        <mxCell id="7CF9CsB8fa3hAw0vR7Yd-85" value="" style="rounded=0;orthogonalLoop=1;jettySize=auto;html=1;endArrow=oval;endFill=0;sketch=0;sourcePerimeterSpacing=0;targetPerimeterSpacing=0;endSize=10;exitX=0;exitY=0.5;exitDx=0;exitDy=0;entryX=0.5;entryY=0;entryDx=0;entryDy=0;entryPerimeter=0;" edge="1" parent="1" source="7CF9CsB8fa3hAw0vR7Yd-128" target="7CF9CsB8fa3hAw0vR7Yd-86">
          <mxGeometry relative="1" as="geometry">
            <mxPoint x="1220" y="1260" as="sourcePoint" />
            <Array as="points">
              <mxPoint x="1240" y="1280" />
              <mxPoint x="1130" y="1280" />
            </Array>
            <mxPoint x="1120" y="1260" as="targetPoint" />
          </mxGeometry>
        </mxCell>
        <mxCell id="7CF9CsB8fa3hAw0vR7Yd-86" value="" style="ellipse;whiteSpace=wrap;html=1;align=center;aspect=fixed;fillColor=none;strokeColor=none;resizable=0;perimeter=centerPerimeter;rotatable=0;allowArrows=0;points=[];outlineConnect=1;" vertex="1" parent="1">
          <mxGeometry x="1115" y="1275" width="10" height="10" as="geometry" />
        </mxCell>
        <mxCell id="7CF9CsB8fa3hAw0vR7Yd-87" value="Account Manager Interface" style="text;html=1;strokeColor=none;fillColor=none;align=center;verticalAlign=middle;whiteSpace=wrap;rounded=0;" vertex="1" parent="1">
          <mxGeometry x="1000" y="1050" width="240" height="20" as="geometry" />
        </mxCell>
        <mxCell id="7CF9CsB8fa3hAw0vR7Yd-88" value="Tournament Subscription Interface" style="text;html=1;strokeColor=none;fillColor=none;align=center;verticalAlign=middle;whiteSpace=wrap;rounded=0;" vertex="1" parent="1">
          <mxGeometry x="1000" y="1150" width="240" height="20" as="geometry" />
        </mxCell>
        <mxCell id="7CF9CsB8fa3hAw0vR7Yd-89" value="Profile Manager Interface" style="text;html=1;strokeColor=none;fillColor=none;align=center;verticalAlign=middle;whiteSpace=wrap;rounded=0;" vertex="1" parent="1">
          <mxGeometry x="1000" y="1350" width="240" height="20" as="geometry" />
        </mxCell>
        <mxCell id="7CF9CsB8fa3hAw0vR7Yd-90" value="" style="rounded=0;orthogonalLoop=1;jettySize=auto;html=1;endArrow=halfCircle;endFill=0;endSize=6;strokeWidth=1;sketch=0;" edge="1" parent="1" target="7CF9CsB8fa3hAw0vR7Yd-92">
          <mxGeometry relative="1" as="geometry">
            <mxPoint x="1000" y="1280" as="sourcePoint" />
            <Array as="points">
              <mxPoint x="1000" y="1480" />
            </Array>
          </mxGeometry>
        </mxCell>
        <mxCell id="7CF9CsB8fa3hAw0vR7Yd-91" value="" style="rounded=0;orthogonalLoop=1;jettySize=auto;html=1;endArrow=oval;endFill=0;sketch=0;sourcePerimeterSpacing=0;targetPerimeterSpacing=0;endSize=10;exitX=0;exitY=0.5;exitDx=0;exitDy=0;" edge="1" parent="1" source="7CF9CsB8fa3hAw0vR7Yd-106" target="7CF9CsB8fa3hAw0vR7Yd-92">
          <mxGeometry relative="1" as="geometry">
            <mxPoint x="1230" y="1365" as="sourcePoint" />
            <Array as="points">
              <mxPoint x="1220" y="1480" />
              <mxPoint x="1160" y="1480" />
            </Array>
          </mxGeometry>
        </mxCell>
        <mxCell id="7CF9CsB8fa3hAw0vR7Yd-92" value="" style="ellipse;whiteSpace=wrap;html=1;align=center;aspect=fixed;fillColor=none;strokeColor=none;resizable=0;perimeter=centerPerimeter;rotatable=0;allowArrows=0;points=[];outlineConnect=1;" vertex="1" parent="1">
          <mxGeometry x="1115" y="1475" width="10" height="10" as="geometry" />
        </mxCell>
        <mxCell id="7CF9CsB8fa3hAw0vR7Yd-93" value="Research Interface" style="text;html=1;strokeColor=none;fillColor=none;align=center;verticalAlign=middle;whiteSpace=wrap;rounded=0;" vertex="1" parent="1">
          <mxGeometry x="1000" y="1450" width="240" height="20" as="geometry" />
        </mxCell>
        <mxCell id="7CF9CsB8fa3hAw0vR7Yd-94" value="Student Manager" style="shape=umlFrame;whiteSpace=wrap;html=1;pointerEvents=0;width=110;height=20;" vertex="1" parent="1">
          <mxGeometry x="1250" y="1010" width="540" height="630" as="geometry" />
        </mxCell>
        <mxCell id="7CF9CsB8fa3hAw0vR7Yd-95" value="Battle &lt;br&gt;Subscription &lt;br&gt;Manager" style="html=1;dropTarget=0;whiteSpace=wrap;" vertex="1" parent="1">
          <mxGeometry x="1310" y="1240" width="120" height="80" as="geometry" />
        </mxCell>
        <mxCell id="7CF9CsB8fa3hAw0vR7Yd-96" value="" style="shape=module;jettyWidth=8;jettyHeight=4;" vertex="1" parent="7CF9CsB8fa3hAw0vR7Yd-95">
          <mxGeometry x="1" width="20" height="20" relative="1" as="geometry">
            <mxPoint x="-27" y="7" as="offset" />
          </mxGeometry>
        </mxCell>
        <mxCell id="7CF9CsB8fa3hAw0vR7Yd-97" value="Tournament Subscription&lt;br&gt;Manager" style="html=1;dropTarget=0;whiteSpace=wrap;" vertex="1" parent="1">
          <mxGeometry x="1310" y="1140" width="120" height="80" as="geometry" />
        </mxCell>
        <mxCell id="7CF9CsB8fa3hAw0vR7Yd-98" value="" style="shape=module;jettyWidth=8;jettyHeight=4;" vertex="1" parent="7CF9CsB8fa3hAw0vR7Yd-97">
          <mxGeometry x="1" width="20" height="20" relative="1" as="geometry">
            <mxPoint x="-27" y="7" as="offset" />
          </mxGeometry>
        </mxCell>
        <mxCell id="7CF9CsB8fa3hAw0vR7Yd-99" value="Student &lt;br&gt;Profile&lt;br&gt;Manager" style="html=1;dropTarget=0;whiteSpace=wrap;" vertex="1" parent="1">
          <mxGeometry x="1310" y="1340" width="120" height="80" as="geometry" />
        </mxCell>
        <mxCell id="7CF9CsB8fa3hAw0vR7Yd-100" value="" style="shape=module;jettyWidth=8;jettyHeight=4;" vertex="1" parent="7CF9CsB8fa3hAw0vR7Yd-99">
          <mxGeometry x="1" width="20" height="20" relative="1" as="geometry">
            <mxPoint x="-27" y="7" as="offset" />
          </mxGeometry>
        </mxCell>
        <mxCell id="7CF9CsB8fa3hAw0vR7Yd-101" value="Student&lt;br&gt;Account &lt;br&gt;Manager" style="html=1;dropTarget=0;whiteSpace=wrap;" vertex="1" parent="1">
          <mxGeometry x="1310" y="1040" width="120" height="80" as="geometry" />
        </mxCell>
        <mxCell id="7CF9CsB8fa3hAw0vR7Yd-102" value="" style="shape=module;jettyWidth=8;jettyHeight=4;" vertex="1" parent="7CF9CsB8fa3hAw0vR7Yd-101">
          <mxGeometry x="1" width="20" height="20" relative="1" as="geometry">
            <mxPoint x="-27" y="7" as="offset" />
          </mxGeometry>
        </mxCell>
        <mxCell id="7CF9CsB8fa3hAw0vR7Yd-103" value="Student&lt;br&gt;Research &lt;br&gt;Manager" style="html=1;dropTarget=0;whiteSpace=wrap;" vertex="1" parent="1">
          <mxGeometry x="1310" y="1440" width="120" height="80" as="geometry" />
        </mxCell>
        <mxCell id="7CF9CsB8fa3hAw0vR7Yd-104" value="" style="shape=module;jettyWidth=8;jettyHeight=4;" vertex="1" parent="7CF9CsB8fa3hAw0vR7Yd-103">
          <mxGeometry x="1" width="20" height="20" relative="1" as="geometry">
            <mxPoint x="-27" y="7" as="offset" />
          </mxGeometry>
        </mxCell>
        <mxCell id="7CF9CsB8fa3hAw0vR7Yd-105" value="" style="rounded=0;whiteSpace=wrap;html=1;" vertex="1" parent="1">
          <mxGeometry x="1240" y="1370" width="20" height="20" as="geometry" />
        </mxCell>
        <mxCell id="7CF9CsB8fa3hAw0vR7Yd-106" value="" style="rounded=0;whiteSpace=wrap;html=1;" vertex="1" parent="1">
          <mxGeometry x="1240" y="1470" width="20" height="20" as="geometry" />
        </mxCell>
        <mxCell id="7CF9CsB8fa3hAw0vR7Yd-107" value="" style="rounded=0;whiteSpace=wrap;html=1;" vertex="1" parent="1">
          <mxGeometry x="1240" y="1170" width="20" height="20" as="geometry" />
        </mxCell>
        <mxCell id="7CF9CsB8fa3hAw0vR7Yd-108" value="" style="rounded=0;whiteSpace=wrap;html=1;" vertex="1" parent="1">
          <mxGeometry x="1240" y="1070" width="20" height="20" as="geometry" />
        </mxCell>
        <mxCell id="7CF9CsB8fa3hAw0vR7Yd-109" value="" style="endArrow=none;html=1;rounded=0;exitX=1;exitY=0.5;exitDx=0;exitDy=0;entryX=0;entryY=0.5;entryDx=0;entryDy=0;" edge="1" parent="1" source="7CF9CsB8fa3hAw0vR7Yd-105" target="7CF9CsB8fa3hAw0vR7Yd-99">
          <mxGeometry width="50" height="50" relative="1" as="geometry">
            <mxPoint x="1320" y="1360" as="sourcePoint" />
            <mxPoint x="1370" y="1310" as="targetPoint" />
          </mxGeometry>
        </mxCell>
        <mxCell id="7CF9CsB8fa3hAw0vR7Yd-110" value="" style="endArrow=none;html=1;rounded=0;exitX=1;exitY=0.5;exitDx=0;exitDy=0;entryX=0;entryY=0.5;entryDx=0;entryDy=0;" edge="1" parent="1">
          <mxGeometry width="50" height="50" relative="1" as="geometry">
            <mxPoint x="1260" y="1480" as="sourcePoint" />
            <mxPoint x="1310" y="1480" as="targetPoint" />
          </mxGeometry>
        </mxCell>
        <mxCell id="7CF9CsB8fa3hAw0vR7Yd-111" value="" style="endArrow=none;html=1;rounded=0;exitX=1;exitY=0.5;exitDx=0;exitDy=0;entryX=0;entryY=0.5;entryDx=0;entryDy=0;" edge="1" parent="1">
          <mxGeometry width="50" height="50" relative="1" as="geometry">
            <mxPoint x="1260" y="1279.71" as="sourcePoint" />
            <mxPoint x="1310" y="1279.71" as="targetPoint" />
          </mxGeometry>
        </mxCell>
        <mxCell id="7CF9CsB8fa3hAw0vR7Yd-112" value="" style="endArrow=none;html=1;rounded=0;exitX=1;exitY=0.5;exitDx=0;exitDy=0;entryX=0;entryY=0.5;entryDx=0;entryDy=0;" edge="1" parent="1">
          <mxGeometry width="50" height="50" relative="1" as="geometry">
            <mxPoint x="1260" y="1180" as="sourcePoint" />
            <mxPoint x="1310" y="1180" as="targetPoint" />
          </mxGeometry>
        </mxCell>
        <mxCell id="7CF9CsB8fa3hAw0vR7Yd-113" value="" style="endArrow=none;html=1;rounded=0;exitX=1;exitY=0.5;exitDx=0;exitDy=0;entryX=0;entryY=0.5;entryDx=0;entryDy=0;" edge="1" parent="1">
          <mxGeometry width="50" height="50" relative="1" as="geometry">
            <mxPoint x="1260" y="1079.9" as="sourcePoint" />
            <mxPoint x="1310" y="1079.9" as="targetPoint" />
          </mxGeometry>
        </mxCell>
        <mxCell id="7CF9CsB8fa3hAw0vR7Yd-114" value="" style="rounded=0;orthogonalLoop=1;jettySize=auto;html=1;endArrow=halfCircle;endFill=0;endSize=6;strokeWidth=1;sketch=0;exitX=1;exitY=0.25;exitDx=0;exitDy=0;" edge="1" parent="1" source="7CF9CsB8fa3hAw0vR7Yd-97" target="7CF9CsB8fa3hAw0vR7Yd-116">
          <mxGeometry relative="1" as="geometry">
            <mxPoint x="1500" y="1140" as="sourcePoint" />
            <Array as="points">
              <mxPoint x="1500" y="1160" />
              <mxPoint x="1500" y="1060" />
            </Array>
          </mxGeometry>
        </mxCell>
        <mxCell id="7CF9CsB8fa3hAw0vR7Yd-115" value="" style="rounded=0;orthogonalLoop=1;jettySize=auto;html=1;endArrow=oval;endFill=0;sketch=0;sourcePerimeterSpacing=0;targetPerimeterSpacing=0;endSize=10;exitX=1;exitY=0.25;exitDx=0;exitDy=0;" edge="1" parent="1" source="7CF9CsB8fa3hAw0vR7Yd-101" target="7CF9CsB8fa3hAw0vR7Yd-116">
          <mxGeometry relative="1" as="geometry">
            <mxPoint x="1440" y="1085" as="sourcePoint" />
          </mxGeometry>
        </mxCell>
        <mxCell id="7CF9CsB8fa3hAw0vR7Yd-116" value="" style="ellipse;whiteSpace=wrap;html=1;align=center;aspect=fixed;fillColor=none;strokeColor=none;resizable=0;perimeter=centerPerimeter;rotatable=0;allowArrows=0;points=[];outlineConnect=1;" vertex="1" parent="1">
          <mxGeometry x="1461.21" y="1055" width="10" height="10" as="geometry" />
        </mxCell>
        <mxCell id="7CF9CsB8fa3hAw0vR7Yd-117" value="" style="endArrow=none;html=1;rounded=0;entryX=1;entryY=0.25;entryDx=0;entryDy=0;" edge="1" parent="1" target="7CF9CsB8fa3hAw0vR7Yd-95">
          <mxGeometry width="50" height="50" relative="1" as="geometry">
            <mxPoint x="1500" y="1160" as="sourcePoint" />
            <mxPoint x="1370" y="1190" as="targetPoint" />
            <Array as="points">
              <mxPoint x="1500" y="1260" />
            </Array>
          </mxGeometry>
        </mxCell>
        <mxCell id="7CF9CsB8fa3hAw0vR7Yd-118" value="" style="endArrow=none;html=1;rounded=0;entryX=1;entryY=0.25;entryDx=0;entryDy=0;" edge="1" parent="1">
          <mxGeometry width="50" height="50" relative="1" as="geometry">
            <mxPoint x="1500" y="1260" as="sourcePoint" />
            <mxPoint x="1430" y="1360" as="targetPoint" />
            <Array as="points">
              <mxPoint x="1500" y="1360" />
            </Array>
          </mxGeometry>
        </mxCell>
        <mxCell id="7CF9CsB8fa3hAw0vR7Yd-119" value="" style="endArrow=none;html=1;rounded=0;entryX=1;entryY=0.25;entryDx=0;entryDy=0;" edge="1" parent="1">
          <mxGeometry width="50" height="50" relative="1" as="geometry">
            <mxPoint x="1500" y="1360" as="sourcePoint" />
            <mxPoint x="1430" y="1460" as="targetPoint" />
            <Array as="points">
              <mxPoint x="1500" y="1460" />
            </Array>
          </mxGeometry>
        </mxCell>
        <mxCell id="7CF9CsB8fa3hAw0vR7Yd-120" value="Query &lt;br&gt;Manager" style="html=1;dropTarget=0;whiteSpace=wrap;" vertex="1" parent="1">
          <mxGeometry x="1640" y="1240" width="120" height="80" as="geometry" />
        </mxCell>
        <mxCell id="7CF9CsB8fa3hAw0vR7Yd-121" value="" style="shape=module;jettyWidth=8;jettyHeight=4;" vertex="1" parent="7CF9CsB8fa3hAw0vR7Yd-120">
          <mxGeometry x="1" width="20" height="20" relative="1" as="geometry">
            <mxPoint x="-27" y="7" as="offset" />
          </mxGeometry>
        </mxCell>
        <mxCell id="7CF9CsB8fa3hAw0vR7Yd-122" value="" style="rounded=0;orthogonalLoop=1;jettySize=auto;html=1;endArrow=halfCircle;endFill=0;endSize=6;strokeWidth=1;sketch=0;exitX=1;exitY=0.5;exitDx=0;exitDy=0;strokeColor=#999999;" edge="1" parent="1" source="7CF9CsB8fa3hAw0vR7Yd-95" target="7CF9CsB8fa3hAw0vR7Yd-124">
          <mxGeometry relative="1" as="geometry">
            <mxPoint x="1520" y="1280" as="sourcePoint" />
          </mxGeometry>
        </mxCell>
        <mxCell id="7CF9CsB8fa3hAw0vR7Yd-123" value="" style="rounded=0;orthogonalLoop=1;jettySize=auto;html=1;endArrow=oval;endFill=0;sketch=0;sourcePerimeterSpacing=0;targetPerimeterSpacing=0;endSize=10;exitX=0;exitY=0.5;exitDx=0;exitDy=0;strokeColor=#999999;" edge="1" parent="1" source="7CF9CsB8fa3hAw0vR7Yd-120" target="7CF9CsB8fa3hAw0vR7Yd-124">
          <mxGeometry relative="1" as="geometry">
            <mxPoint x="1620" y="1280" as="sourcePoint" />
          </mxGeometry>
        </mxCell>
        <mxCell id="7CF9CsB8fa3hAw0vR7Yd-124" value="" style="ellipse;whiteSpace=wrap;html=1;align=center;aspect=fixed;fillColor=none;strokeColor=none;resizable=0;perimeter=centerPerimeter;rotatable=0;allowArrows=0;points=[];outlineConnect=1;" vertex="1" parent="1">
          <mxGeometry x="1575" y="1275" width="10" height="10" as="geometry" />
        </mxCell>
        <mxCell id="7CF9CsB8fa3hAw0vR7Yd-125" value="" style="endArrow=none;html=1;rounded=0;entryX=1;entryY=0.5;entryDx=0;entryDy=0;exitX=1;exitY=0.5;exitDx=0;exitDy=0;strokeColor=#999999;" edge="1" parent="1" source="7CF9CsB8fa3hAw0vR7Yd-99" target="7CF9CsB8fa3hAw0vR7Yd-97">
          <mxGeometry width="50" height="50" relative="1" as="geometry">
            <mxPoint x="1410" y="1290" as="sourcePoint" />
            <mxPoint x="1460" y="1240" as="targetPoint" />
            <Array as="points">
              <mxPoint x="1520" y="1380" />
              <mxPoint x="1520" y="1180" />
            </Array>
          </mxGeometry>
        </mxCell>
        <mxCell id="7CF9CsB8fa3hAw0vR7Yd-127" value="Authentication Interface" style="text;html=1;strokeColor=none;fillColor=none;align=center;verticalAlign=middle;whiteSpace=wrap;rounded=0;" vertex="1" parent="1">
          <mxGeometry x="1430" y="1015" width="70" height="40" as="geometry" />
        </mxCell>
        <mxCell id="7CF9CsB8fa3hAw0vR7Yd-128" value="" style="rounded=0;whiteSpace=wrap;html=1;" vertex="1" parent="1">
          <mxGeometry x="1240" y="1270" width="20" height="20" as="geometry" />
        </mxCell>
        <mxCell id="7CF9CsB8fa3hAw0vR7Yd-130" value="" style="rounded=0;orthogonalLoop=1;jettySize=auto;html=1;endArrow=halfCircle;endFill=0;endSize=6;strokeWidth=1;sketch=0;exitX=0.5;exitY=1;exitDx=0;exitDy=0;" edge="1" parent="1" source="7CF9CsB8fa3hAw0vR7Yd-129" target="7CF9CsB8fa3hAw0vR7Yd-132">
          <mxGeometry relative="1" as="geometry">
            <mxPoint x="1601.24" y="1470" as="sourcePoint" />
          </mxGeometry>
        </mxCell>
        <mxCell id="7CF9CsB8fa3hAw0vR7Yd-131" value="" style="rounded=0;orthogonalLoop=1;jettySize=auto;html=1;endArrow=oval;endFill=0;sketch=0;sourcePerimeterSpacing=0;targetPerimeterSpacing=0;endSize=10;exitX=1;exitY=0.5;exitDx=0;exitDy=0;entryX=0.086;entryY=0.429;entryDx=0;entryDy=0;entryPerimeter=0;" edge="1" parent="1" source="7CF9CsB8fa3hAw0vR7Yd-134" target="7CF9CsB8fa3hAw0vR7Yd-132">
          <mxGeometry relative="1" as="geometry">
            <mxPoint x="1511.24" y="1640" as="sourcePoint" />
            <Array as="points">
              <mxPoint x="1700" y="1740" />
            </Array>
            <mxPoint x="1650" y="1700" as="targetPoint" />
          </mxGeometry>
        </mxCell>
        <mxCell id="7CF9CsB8fa3hAw0vR7Yd-132" value="" style="ellipse;whiteSpace=wrap;html=1;align=center;aspect=fixed;fillColor=none;strokeColor=none;resizable=0;perimeter=centerPerimeter;rotatable=0;allowArrows=0;points=[];outlineConnect=1;" vertex="1" parent="1">
          <mxGeometry x="1695" y="1695" width="10" height="10" as="geometry" />
        </mxCell>
        <mxCell id="7CF9CsB8fa3hAw0vR7Yd-133" value="CodeKataBattle Database" style="shape=umlFrame;whiteSpace=wrap;html=1;pointerEvents=0;width=160;height=20;" vertex="1" parent="1">
          <mxGeometry x="1430" y="1670" width="180" height="120" as="geometry" />
        </mxCell>
        <mxCell id="7CF9CsB8fa3hAw0vR7Yd-134" value="Query &lt;br&gt;Manager" style="html=1;dropTarget=0;whiteSpace=wrap;" vertex="1" parent="1">
          <mxGeometry x="1461.21" y="1700" width="120" height="80" as="geometry" />
        </mxCell>
        <mxCell id="7CF9CsB8fa3hAw0vR7Yd-135" value="" style="shape=module;jettyWidth=8;jettyHeight=4;" vertex="1" parent="7CF9CsB8fa3hAw0vR7Yd-134">
          <mxGeometry x="1" width="20" height="20" relative="1" as="geometry">
            <mxPoint x="-27" y="7" as="offset" />
          </mxGeometry>
        </mxCell>
        <mxCell id="7CF9CsB8fa3hAw0vR7Yd-136" value="" style="rounded=0;whiteSpace=wrap;html=1;" vertex="1" parent="1">
          <mxGeometry x="1600" y="1730" width="20" height="20" as="geometry" />
        </mxCell>
        <mxCell id="7CF9CsB8fa3hAw0vR7Yd-137" value="DBMS API" style="text;html=1;strokeColor=none;fillColor=none;align=center;verticalAlign=middle;whiteSpace=wrap;rounded=0;" vertex="1" parent="1">
          <mxGeometry x="1705" y="1688.75" width="50.03" height="30" as="geometry" />
        </mxCell>
        <mxCell id="7CF9CsB8fa3hAw0vR7Yd-138" value="" style="endArrow=none;html=1;rounded=0;entryX=0.5;entryY=0;entryDx=0;entryDy=0;" edge="1" parent="1" target="7CF9CsB8fa3hAw0vR7Yd-129">
          <mxGeometry width="50" height="50" relative="1" as="geometry">
            <mxPoint x="1700.03" y="1320" as="sourcePoint" />
            <mxPoint x="1630.03" y="1420" as="targetPoint" />
            <Array as="points">
              <mxPoint x="1700.03" y="1420" />
            </Array>
          </mxGeometry>
        </mxCell>
        <mxCell id="7CF9CsB8fa3hAw0vR7Yd-140" value="" style="shape=providedRequiredInterface;html=1;verticalLabelPosition=bottom;sketch=0;rotation=90;fillColor=#dae8fc;strokeColor=#6c8ebf;" vertex="1" parent="1">
          <mxGeometry x="1599.97" y="960" width="20" height="20" as="geometry" />
        </mxCell>
        <mxCell id="7CF9CsB8fa3hAw0vR7Yd-142" value="" style="shape=providedRequiredInterface;html=1;verticalLabelPosition=bottom;sketch=0;rotation=90;fillColor=#e1d5e7;strokeColor=#9673a6;" vertex="1" parent="1">
          <mxGeometry x="1520" y="960" width="20" height="20" as="geometry" />
        </mxCell>
        <mxCell id="7CF9CsB8fa3hAw0vR7Yd-143" value="" style="endArrow=none;dashed=1;html=1;rounded=0;entryX=1;entryY=0.5;entryDx=0;entryDy=0;entryPerimeter=0;fillColor=#dae8fc;strokeColor=#6c8ebf;exitX=1;exitY=0.75;exitDx=0;exitDy=0;" edge="1" parent="1" source="K1sBR5tFp1tcEWr6KJ2s-6" target="7CF9CsB8fa3hAw0vR7Yd-140">
          <mxGeometry width="50" height="50" relative="1" as="geometry">
            <mxPoint x="1550" y="1240" as="sourcePoint" />
            <mxPoint x="1609.9700000000003" y="1020" as="targetPoint" />
            <Array as="points">
              <mxPoint x="1490" y="1600" />
              <mxPoint x="1540" y="1600" />
              <mxPoint x="1540" y="1240" />
              <mxPoint x="1540" y="1040" />
              <mxPoint x="1610" y="1040" />
            </Array>
          </mxGeometry>
        </mxCell>
        <mxCell id="7CF9CsB8fa3hAw0vR7Yd-145" value="" style="endArrow=none;dashed=1;html=1;rounded=0;entryX=1;entryY=0.5;entryDx=0;entryDy=0;entryPerimeter=0;exitX=1;exitY=0.75;exitDx=0;exitDy=0;fillColor=#e1d5e7;strokeColor=#9673a6;" edge="1" parent="1" source="7CF9CsB8fa3hAw0vR7Yd-101" target="7CF9CsB8fa3hAw0vR7Yd-142">
          <mxGeometry width="50" height="50" relative="1" as="geometry">
            <mxPoint x="1590" y="1030" as="sourcePoint" />
            <mxPoint x="1545" y="940" as="targetPoint" />
            <Array as="points">
              <mxPoint x="1530" y="1100" />
            </Array>
          </mxGeometry>
        </mxCell>
        <mxCell id="7CF9CsB8fa3hAw0vR7Yd-147" value="SMS Service" style="text;html=1;strokeColor=none;fillColor=none;align=center;verticalAlign=middle;whiteSpace=wrap;rounded=0;" vertex="1" parent="1">
          <mxGeometry x="1569.97" y="930" width="80" height="30" as="geometry" />
        </mxCell>
        <mxCell id="7CF9CsB8fa3hAw0vR7Yd-149" value="Email Service" style="text;html=1;strokeColor=none;fillColor=none;align=center;verticalAlign=middle;whiteSpace=wrap;rounded=0;" vertex="1" parent="1">
          <mxGeometry x="1490" y="930" width="80" height="30" as="geometry" />
        </mxCell>
        <mxCell id="7CF9CsB8fa3hAw0vR7Yd-153" value="" style="endArrow=none;html=1;rounded=0;entryX=1;entryY=0.5;entryDx=0;entryDy=0;strokeColor=#999999;" edge="1" parent="1" target="7CF9CsB8fa3hAw0vR7Yd-101">
          <mxGeometry width="50" height="50" relative="1" as="geometry">
            <mxPoint x="1520" y="1180" as="sourcePoint" />
            <mxPoint x="1440" y="1190" as="targetPoint" />
            <Array as="points">
              <mxPoint x="1520" y="1180" />
              <mxPoint x="1520" y="1080" />
            </Array>
          </mxGeometry>
        </mxCell>
        <mxCell id="7CF9CsB8fa3hAw0vR7Yd-155" value="" style="rounded=0;whiteSpace=wrap;html=1;" vertex="1" parent="1">
          <mxGeometry x="1600" y="1000" width="20" height="20" as="geometry" />
        </mxCell>
        <mxCell id="7CF9CsB8fa3hAw0vR7Yd-157" value="" style="rounded=0;whiteSpace=wrap;html=1;" vertex="1" parent="1">
          <mxGeometry x="1520" y="1000" width="20" height="20" as="geometry" />
        </mxCell>
        <mxCell id="7CF9CsB8fa3hAw0vR7Yd-158" value="Battle Subscription&amp;nbsp;Interface" style="text;html=1;strokeColor=none;fillColor=none;align=center;verticalAlign=middle;whiteSpace=wrap;rounded=0;" vertex="1" parent="1">
          <mxGeometry x="1000" y="1250" width="240" height="20" as="geometry" />
        </mxCell>
        <mxCell id="jgZs0tNBGPCr4t99abGU-1" value="&lt;div style=&quot;box-sizing:border-box;width:100%;background:#e4e4e4;padding:2px;&quot;&gt;Tournament&lt;/div&gt;&lt;table style=&quot;width:100%;font-size:1em;&quot; cellpadding=&quot;2&quot; cellspacing=&quot;0&quot;&gt;&lt;tbody&gt;&lt;tr&gt;&lt;td&gt;&lt;u&gt;tournamentID&lt;/u&gt;&lt;/td&gt;&lt;td&gt;int&lt;/td&gt;&lt;/tr&gt;&lt;tr&gt;&lt;td&gt;description&lt;br&gt;name&lt;br&gt;closed&lt;br&gt;registrationDeadline&lt;br&gt;owner&lt;br&gt;&lt;/td&gt;&lt;td&gt;varchar(1024)&lt;br&gt;varchar(32)&lt;br&gt;boolean&lt;br&gt;date&lt;br&gt;int&lt;br&gt;&lt;/td&gt;&lt;/tr&gt;&lt;tr&gt;&lt;td&gt;&lt;br&gt;&lt;/td&gt;&lt;td&gt;&lt;br&gt;&lt;/td&gt;&lt;/tr&gt;&lt;/tbody&gt;&lt;/table&gt;" style="verticalAlign=top;align=left;overflow=fill;html=1;whiteSpace=wrap;" vertex="1" parent="1">
          <mxGeometry x="-2200.06" y="1347.5" width="240.06" height="110" as="geometry" />
        </mxCell>
        <mxCell id="jgZs0tNBGPCr4t99abGU-2" value="&lt;div style=&quot;box-sizing:border-box;width:100%;background:#e4e4e4;padding:2px;&quot;&gt;Group&lt;/div&gt;&lt;table style=&quot;width:100%;font-size:1em;&quot; cellpadding=&quot;2&quot; cellspacing=&quot;0&quot;&gt;&lt;tbody&gt;&lt;tr&gt;&lt;td&gt;&lt;u&gt;groupID&lt;/u&gt;&lt;/td&gt;&lt;td&gt;int&lt;/td&gt;&lt;/tr&gt;&lt;tr&gt;&lt;td&gt;name&lt;br&gt;members&lt;br&gt;points&lt;br&gt;personalPoint&lt;br&gt;repositoryURL&lt;br&gt;&lt;/td&gt;&lt;td&gt;varchar(32)&lt;br&gt;int&lt;br&gt;int&lt;br&gt;int&lt;br&gt;varchar(32)&lt;br&gt;&lt;/td&gt;&lt;/tr&gt;&lt;tr&gt;&lt;td&gt;&lt;/td&gt;&lt;td&gt;&lt;br&gt;&lt;/td&gt;&lt;/tr&gt;&lt;/tbody&gt;&lt;/table&gt;" style="verticalAlign=top;align=left;overflow=fill;html=1;whiteSpace=wrap;" vertex="1" parent="1">
          <mxGeometry x="-1530" y="1030" width="180" height="117.5" as="geometry" />
        </mxCell>
        <mxCell id="jgZs0tNBGPCr4t99abGU-3" value="&lt;div style=&quot;box-sizing:border-box;width:100%;background:#e4e4e4;padding:2px;&quot;&gt;Rank&lt;/div&gt;&lt;table style=&quot;width:100%;font-size:1em;&quot; cellpadding=&quot;2&quot; cellspacing=&quot;0&quot;&gt;&lt;tbody&gt;&lt;tr&gt;&lt;td&gt;&lt;u&gt;rankID&lt;/u&gt;&lt;/td&gt;&lt;td&gt;int&lt;/td&gt;&lt;/tr&gt;&lt;tr&gt;&lt;td&gt;points&lt;br&gt;student&lt;br&gt;tournament&lt;/td&gt;&lt;td&gt;int&lt;br&gt;int&lt;br&gt;int&lt;/td&gt;&lt;/tr&gt;&lt;tr&gt;&lt;td&gt;&lt;/td&gt;&lt;td&gt;&lt;br&gt;&lt;/td&gt;&lt;/tr&gt;&lt;/tbody&gt;&lt;/table&gt;" style="verticalAlign=top;align=left;overflow=fill;html=1;whiteSpace=wrap;" vertex="1" parent="1">
          <mxGeometry x="-1800" y="1362.5" width="180" height="80" as="geometry" />
        </mxCell>
        <mxCell id="jgZs0tNBGPCr4t99abGU-5" value="(0,N)" style="text;html=1;strokeColor=none;fillColor=none;align=center;verticalAlign=middle;whiteSpace=wrap;rounded=0;" vertex="1" parent="1">
          <mxGeometry x="-1870" y="1078.75" width="40" height="20" as="geometry" />
        </mxCell>
        <mxCell id="jgZs0tNBGPCr4t99abGU-8" value="" style="endArrow=none;html=1;rounded=0;exitX=1;exitY=0.5;exitDx=0;exitDy=0;entryX=0;entryY=0.596;entryDx=0;entryDy=0;entryPerimeter=0;" edge="1" parent="1" source="jgZs0tNBGPCr4t99abGU-7" target="jgZs0tNBGPCr4t99abGU-2">
          <mxGeometry width="50" height="50" relative="1" as="geometry">
            <mxPoint x="-1560" y="1272.5" as="sourcePoint" />
            <mxPoint x="-1510" y="1222.5" as="targetPoint" />
          </mxGeometry>
        </mxCell>
        <mxCell id="jgZs0tNBGPCr4t99abGU-9" value="(1,N)" style="text;html=1;strokeColor=none;fillColor=none;align=center;verticalAlign=middle;whiteSpace=wrap;rounded=0;" vertex="1" parent="1">
          <mxGeometry x="-1570" y="1080" width="40" height="20" as="geometry" />
        </mxCell>
        <mxCell id="jgZs0tNBGPCr4t99abGU-10" value="" style="endArrow=none;html=1;rounded=0;exitX=0.5;exitY=1;exitDx=0;exitDy=0;entryX=0.5;entryY=0;entryDx=0;entryDy=0;" edge="1" parent="1" source="jgZs0tNBGPCr4t99abGU-11" target="jgZs0tNBGPCr4t99abGU-1">
          <mxGeometry width="50" height="50" relative="1" as="geometry">
            <mxPoint x="-1860" y="1107.5" as="sourcePoint" />
            <mxPoint x="-1520" y="1107.5" as="targetPoint" />
          </mxGeometry>
        </mxCell>
        <mxCell id="jgZs0tNBGPCr4t99abGU-12" value="(0,N)" style="text;html=1;strokeColor=none;fillColor=none;align=center;verticalAlign=middle;whiteSpace=wrap;rounded=0;" vertex="1" parent="1">
          <mxGeometry x="-2090" y="1078.75" width="40" height="20" as="geometry" />
        </mxCell>
        <mxCell id="jgZs0tNBGPCr4t99abGU-13" value="(0,N)" style="text;html=1;strokeColor=none;fillColor=none;align=center;verticalAlign=middle;whiteSpace=wrap;rounded=0;" vertex="1" parent="1">
          <mxGeometry x="-2080" y="1327.5" width="40" height="20" as="geometry" />
        </mxCell>
        <mxCell id="jgZs0tNBGPCr4t99abGU-14" value="" style="endArrow=none;html=1;rounded=0;exitX=0.5;exitY=1;exitDx=0;exitDy=0;entryX=0.5;entryY=0;entryDx=0;entryDy=0;" edge="1" parent="1" source="jgZs0tNBGPCr4t99abGU-15" target="jgZs0tNBGPCr4t99abGU-3">
          <mxGeometry width="50" height="50" relative="1" as="geometry">
            <mxPoint x="-1950" y="1162.5" as="sourcePoint" />
            <mxPoint x="-1950" y="1342.5" as="targetPoint" />
            <Array as="points" />
          </mxGeometry>
        </mxCell>
        <mxCell id="jgZs0tNBGPCr4t99abGU-16" value="" style="endArrow=none;html=1;rounded=0;exitX=0.5;exitY=1;exitDx=0;exitDy=0;entryX=0;entryY=0.5;entryDx=0;entryDy=0;" edge="1" parent="1" source="AD9h0x3ZnpMd-QSPCWr3-183" target="jgZs0tNBGPCr4t99abGU-15">
          <mxGeometry width="50" height="50" relative="1" as="geometry">
            <mxPoint x="-1870" y="1152.5" as="sourcePoint" />
            <mxPoint x="-1770" y="1252.5" as="targetPoint" />
            <Array as="points">
              <mxPoint x="-1960" y="1213" />
              <mxPoint x="-1810" y="1212.5" />
            </Array>
          </mxGeometry>
        </mxCell>
        <mxCell id="jgZs0tNBGPCr4t99abGU-15" value="has" style="rhombus;whiteSpace=wrap;html=1;" vertex="1" parent="1">
          <mxGeometry x="-1748.79" y="1172.5" width="80" height="80" as="geometry" />
        </mxCell>
        <mxCell id="jgZs0tNBGPCr4t99abGU-17" value="(0,N)" style="text;html=1;strokeColor=none;fillColor=none;align=center;verticalAlign=middle;whiteSpace=wrap;rounded=0;" vertex="1" parent="1">
          <mxGeometry x="-1830" y="1155" width="40" height="20" as="geometry" />
        </mxCell>
        <mxCell id="jgZs0tNBGPCr4t99abGU-18" value="(1,1)" style="text;html=1;strokeColor=none;fillColor=none;align=center;verticalAlign=middle;whiteSpace=wrap;rounded=0;" vertex="1" parent="1">
          <mxGeometry x="-1710.03" y="1342.5" width="40" height="20" as="geometry" />
        </mxCell>
        <mxCell id="jgZs0tNBGPCr4t99abGU-20" value="" style="endArrow=none;html=1;rounded=0;exitX=0.5;exitY=1;exitDx=0;exitDy=0;entryX=0.5;entryY=0;entryDx=0;entryDy=0;" edge="1" parent="1" source="jgZs0tNBGPCr4t99abGU-21" target="AD9h0x3ZnpMd-QSPCWr3-185">
          <mxGeometry width="50" height="50" relative="1" as="geometry">
            <mxPoint x="-1860" y="1107.5" as="sourcePoint" />
            <mxPoint x="-1520" y="1107.5" as="targetPoint" />
          </mxGeometry>
        </mxCell>
        <mxCell id="jgZs0tNBGPCr4t99abGU-22" value="(1,1)" style="text;html=1;strokeColor=none;fillColor=none;align=center;verticalAlign=middle;whiteSpace=wrap;rounded=0;" vertex="1" parent="1">
          <mxGeometry x="-1440" y="1147.5" width="40" height="20" as="geometry" />
        </mxCell>
        <mxCell id="jgZs0tNBGPCr4t99abGU-23" value="(0,N)" style="text;html=1;strokeColor=none;fillColor=none;align=center;verticalAlign=middle;whiteSpace=wrap;rounded=0;" vertex="1" parent="1">
          <mxGeometry x="-1440" y="1262.5" width="40" height="20" as="geometry" />
        </mxCell>
        <mxCell id="jgZs0tNBGPCr4t99abGU-24" value="" style="endArrow=none;html=1;rounded=0;exitX=0;exitY=0.5;exitDx=0;exitDy=0;entryX=1;entryY=0.5;entryDx=0;entryDy=0;" edge="1" parent="1" source="jgZs0tNBGPCr4t99abGU-26" target="jgZs0tNBGPCr4t99abGU-1">
          <mxGeometry width="50" height="50" relative="1" as="geometry">
            <mxPoint x="-1950" y="1162.5" as="sourcePoint" />
            <mxPoint x="-1950" y="1342.5" as="targetPoint" />
          </mxGeometry>
        </mxCell>
        <mxCell id="jgZs0tNBGPCr4t99abGU-25" value="" style="endArrow=none;html=1;rounded=0;entryX=0.5;entryY=0;entryDx=0;entryDy=0;" edge="1" parent="1" target="jgZs0tNBGPCr4t99abGU-11">
          <mxGeometry width="50" height="50" relative="1" as="geometry">
            <mxPoint x="-2050" y="1100" as="sourcePoint" />
            <mxPoint x="-2070.0299999999997" y="1172.5" as="targetPoint" />
            <Array as="points">
              <mxPoint x="-2080" y="1100" />
            </Array>
          </mxGeometry>
        </mxCell>
        <mxCell id="jgZs0tNBGPCr4t99abGU-11" value="enrolled" style="rhombus;whiteSpace=wrap;html=1;" vertex="1" parent="1">
          <mxGeometry x="-2120.0299999999997" y="1172.5" width="80" height="80" as="geometry" />
        </mxCell>
        <mxCell id="jgZs0tNBGPCr4t99abGU-27" value="" style="endArrow=none;html=1;rounded=0;exitX=0;exitY=0.5;exitDx=0;exitDy=0;entryX=1;entryY=0.5;entryDx=0;entryDy=0;" edge="1" parent="1" source="jgZs0tNBGPCr4t99abGU-3" target="jgZs0tNBGPCr4t99abGU-26">
          <mxGeometry width="50" height="50" relative="1" as="geometry">
            <mxPoint x="-1770" y="1402.5" as="sourcePoint" />
            <mxPoint x="-1960" y="1402.5" as="targetPoint" />
          </mxGeometry>
        </mxCell>
        <mxCell id="jgZs0tNBGPCr4t99abGU-26" value="has" style="rhombus;whiteSpace=wrap;html=1;" vertex="1" parent="1">
          <mxGeometry x="-1920" y="1362.5" width="80" height="80" as="geometry" />
        </mxCell>
        <mxCell id="jgZs0tNBGPCr4t99abGU-28" value="" style="endArrow=none;html=1;rounded=0;exitX=1;exitY=0.519;exitDx=0;exitDy=0;entryX=0;entryY=0.5;entryDx=0;entryDy=0;exitPerimeter=0;" edge="1" parent="1" source="AD9h0x3ZnpMd-QSPCWr3-183" target="jgZs0tNBGPCr4t99abGU-7">
          <mxGeometry width="50" height="50" relative="1" as="geometry">
            <mxPoint x="-1870" y="1097.5" as="sourcePoint" />
            <mxPoint x="-1530" y="1097.5" as="targetPoint" />
          </mxGeometry>
        </mxCell>
        <mxCell id="jgZs0tNBGPCr4t99abGU-7" value="partecipate" style="rhombus;whiteSpace=wrap;html=1;" vertex="1" parent="1">
          <mxGeometry x="-1748.79" y="1060" width="80" height="80" as="geometry" />
        </mxCell>
        <mxCell id="jgZs0tNBGPCr4t99abGU-29" value="" style="endArrow=none;html=1;rounded=0;exitX=0.5;exitY=1;exitDx=0;exitDy=0;entryX=0.5;entryY=0;entryDx=0;entryDy=0;" edge="1" parent="1" source="jgZs0tNBGPCr4t99abGU-2" target="jgZs0tNBGPCr4t99abGU-21">
          <mxGeometry width="50" height="50" relative="1" as="geometry">
            <mxPoint x="-1440" y="1147.5" as="sourcePoint" />
            <mxPoint x="-1440" y="1282.5" as="targetPoint" />
          </mxGeometry>
        </mxCell>
        <mxCell id="jgZs0tNBGPCr4t99abGU-21" value="partecipate" style="rhombus;whiteSpace=wrap;html=1;" vertex="1" parent="1">
          <mxGeometry x="-1480" y="1172.5" width="80" height="80" as="geometry" />
        </mxCell>
        <mxCell id="jgZs0tNBGPCr4t99abGU-30" value="(0,N)" style="text;html=1;strokeColor=none;fillColor=none;align=center;verticalAlign=middle;whiteSpace=wrap;rounded=0;" vertex="1" parent="1">
          <mxGeometry x="-1960" y="1382.5" width="40" height="20" as="geometry" />
        </mxCell>
        <mxCell id="jgZs0tNBGPCr4t99abGU-31" value="(1,1)" style="text;html=1;strokeColor=none;fillColor=none;align=center;verticalAlign=middle;whiteSpace=wrap;rounded=0;" vertex="1" parent="1">
          <mxGeometry x="-1840" y="1382.5" width="40" height="20" as="geometry" />
        </mxCell>
        <mxCell id="jgZs0tNBGPCr4t99abGU-32" value="" style="endArrow=none;html=1;rounded=0;exitX=0;exitY=0.5;exitDx=0;exitDy=0;entryX=0.5;entryY=1;entryDx=0;entryDy=0;" edge="1" parent="1" source="jgZs0tNBGPCr4t99abGU-34" target="jgZs0tNBGPCr4t99abGU-1">
          <mxGeometry width="50" height="50" relative="1" as="geometry">
            <mxPoint x="-2000.03" y="1322.5" as="sourcePoint" />
            <mxPoint x="-2010.03" y="1562.5" as="targetPoint" />
            <Array as="points">
              <mxPoint x="-2080" y="1542.5" />
            </Array>
          </mxGeometry>
        </mxCell>
        <mxCell id="jgZs0tNBGPCr4t99abGU-33" value="" style="endArrow=none;html=1;rounded=0;exitX=0.5;exitY=1;exitDx=0;exitDy=0;entryX=1;entryY=0.5;entryDx=0;entryDy=0;" edge="1" parent="1" source="AD9h0x3ZnpMd-QSPCWr3-185" target="jgZs0tNBGPCr4t99abGU-34">
          <mxGeometry width="50" height="50" relative="1" as="geometry">
            <mxPoint x="-1820.03" y="1562.5" as="sourcePoint" />
            <mxPoint x="-2010.03" y="1562.5" as="targetPoint" />
            <Array as="points">
              <mxPoint x="-1440" y="1542.5" />
            </Array>
          </mxGeometry>
        </mxCell>
        <mxCell id="jgZs0tNBGPCr4t99abGU-34" value="has" style="rhombus;whiteSpace=wrap;html=1;" vertex="1" parent="1">
          <mxGeometry x="-1748.79" y="1502.5" width="80" height="80" as="geometry" />
        </mxCell>
        <mxCell id="jgZs0tNBGPCr4t99abGU-35" value="(0,N)" style="text;html=1;strokeColor=none;fillColor=none;align=center;verticalAlign=middle;whiteSpace=wrap;rounded=0;" vertex="1" parent="1">
          <mxGeometry x="-2080" y="1457.5" width="40" height="20" as="geometry" />
        </mxCell>
        <mxCell id="jgZs0tNBGPCr4t99abGU-36" value="(1,1)" style="text;html=1;strokeColor=none;fillColor=none;align=center;verticalAlign=middle;whiteSpace=wrap;rounded=0;" vertex="1" parent="1">
          <mxGeometry x="-1440" y="1442.5" width="40" height="20" as="geometry" />
        </mxCell>
        <mxCell id="jgZs0tNBGPCr4t99abGU-42" value="" style="endArrow=none;html=1;rounded=0;exitX=0.5;exitY=0;exitDx=0;exitDy=0;entryX=0.25;entryY=1;entryDx=0;entryDy=0;" edge="1" parent="1" source="jgZs0tNBGPCr4t99abGU-44" target="jgZs0tNBGPCr4t99abGU-1">
          <mxGeometry width="50" height="50" relative="1" as="geometry">
            <mxPoint x="-2141.21" y="1442.5" as="sourcePoint" />
            <mxPoint x="-2151.21" y="1682.5" as="targetPoint" />
          </mxGeometry>
        </mxCell>
        <mxCell id="jgZs0tNBGPCr4t99abGU-43" value="" style="endArrow=none;html=1;rounded=0;exitX=0.5;exitY=0;exitDx=0;exitDy=0;entryX=0.5;entryY=1;entryDx=0;entryDy=0;" edge="1" parent="1" source="AD9h0x3ZnpMd-QSPCWr3-184" target="jgZs0tNBGPCr4t99abGU-44">
          <mxGeometry width="50" height="50" relative="1" as="geometry">
            <mxPoint x="-1961.21" y="1682.5" as="sourcePoint" />
            <mxPoint x="-2151.21" y="1682.5" as="targetPoint" />
          </mxGeometry>
        </mxCell>
        <mxCell id="jgZs0tNBGPCr4t99abGU-44" value="is created" style="rhombus;whiteSpace=wrap;html=1;" vertex="1" parent="1">
          <mxGeometry x="-2180" y="1502.5" width="80" height="80" as="geometry" />
        </mxCell>
        <mxCell id="jgZs0tNBGPCr4t99abGU-45" value="(1,1)" style="text;html=1;strokeColor=none;fillColor=none;align=center;verticalAlign=middle;whiteSpace=wrap;rounded=0;" vertex="1" parent="1">
          <mxGeometry x="-2140" y="1457.5" width="40" height="20" as="geometry" />
        </mxCell>
        <mxCell id="jgZs0tNBGPCr4t99abGU-50" value="(0,N)" style="text;html=1;strokeColor=none;fillColor=none;align=center;verticalAlign=middle;whiteSpace=wrap;rounded=0;" vertex="1" parent="1">
          <mxGeometry x="-2140" y="1607.5" width="40" height="20" as="geometry" />
        </mxCell>
        <mxCell id="jgZs0tNBGPCr4t99abGU-52" value="" style="endArrow=none;html=1;rounded=0;exitX=0.5;exitY=0;exitDx=0;exitDy=0;entryX=0;entryY=0.5;entryDx=0;entryDy=0;" edge="1" parent="1" source="jgZs0tNBGPCr4t99abGU-54" target="jgZs0tNBGPCr4t99abGU-1">
          <mxGeometry width="50" height="50" relative="1" as="geometry">
            <mxPoint x="-2266.21" y="1557.5" as="sourcePoint" />
            <mxPoint x="-2265" y="1572.5" as="targetPoint" />
            <Array as="points">
              <mxPoint x="-2290" y="1402.5" />
            </Array>
          </mxGeometry>
        </mxCell>
        <mxCell id="jgZs0tNBGPCr4t99abGU-53" value="" style="endArrow=none;html=1;rounded=0;exitX=0;exitY=0.5;exitDx=0;exitDy=0;entryX=0.5;entryY=1;entryDx=0;entryDy=0;" edge="1" parent="1" source="AD9h0x3ZnpMd-QSPCWr3-184" target="jgZs0tNBGPCr4t99abGU-54">
          <mxGeometry width="50" height="50" relative="1" as="geometry">
            <mxPoint x="-2040" y="1812.5" as="sourcePoint" />
            <mxPoint x="-2276.21" y="1797.5" as="targetPoint" />
            <Array as="points">
              <mxPoint x="-2290" y="1704" />
            </Array>
          </mxGeometry>
        </mxCell>
        <mxCell id="jgZs0tNBGPCr4t99abGU-54" value="is managed" style="rhombus;whiteSpace=wrap;html=1;" vertex="1" parent="1">
          <mxGeometry x="-2330" y="1502.5" width="80" height="80" as="geometry" />
        </mxCell>
        <mxCell id="jgZs0tNBGPCr4t99abGU-55" value="(1,N)" style="text;html=1;strokeColor=none;fillColor=none;align=center;verticalAlign=middle;whiteSpace=wrap;rounded=0;" vertex="1" parent="1">
          <mxGeometry x="-2240.06" y="1382.5" width="40" height="20" as="geometry" />
        </mxCell>
        <mxCell id="jgZs0tNBGPCr4t99abGU-56" value="(0,N)" style="text;html=1;strokeColor=none;fillColor=none;align=center;verticalAlign=middle;whiteSpace=wrap;rounded=0;" vertex="1" parent="1">
          <mxGeometry x="-2270" y="1682.5" width="40" height="20" as="geometry" />
        </mxCell>
        <mxCell id="jgZs0tNBGPCr4t99abGU-61" value="" style="endArrow=none;html=1;rounded=0;exitX=0.5;exitY=0;exitDx=0;exitDy=0;entryX=0.75;entryY=1;entryDx=0;entryDy=0;" edge="1" parent="1" source="jgZs0tNBGPCr4t99abGU-63" target="AD9h0x3ZnpMd-QSPCWr3-185">
          <mxGeometry width="50" height="50" relative="1" as="geometry">
            <mxPoint x="-1361.21" y="1517.5" as="sourcePoint" />
            <mxPoint x="-1360" y="1532.5" as="targetPoint" />
          </mxGeometry>
        </mxCell>
        <mxCell id="jgZs0tNBGPCr4t99abGU-62" value="" style="endArrow=none;html=1;rounded=0;exitX=1;exitY=0.5;exitDx=0;exitDy=0;entryX=0.5;entryY=1;entryDx=0;entryDy=0;" edge="1" parent="1" source="AD9h0x3ZnpMd-QSPCWr3-184" target="jgZs0tNBGPCr4t99abGU-63">
          <mxGeometry width="50" height="50" relative="1" as="geometry">
            <mxPoint x="-1360" y="1702.5" as="sourcePoint" />
            <mxPoint x="-1371.21" y="1757.5" as="targetPoint" />
            <Array as="points">
              <mxPoint x="-1380" y="1700" />
            </Array>
          </mxGeometry>
        </mxCell>
        <mxCell id="jgZs0tNBGPCr4t99abGU-63" value="is created" style="rhombus;whiteSpace=wrap;html=1;" vertex="1" parent="1">
          <mxGeometry x="-1420" y="1502.5" width="80" height="80" as="geometry" />
        </mxCell>
        <mxCell id="jgZs0tNBGPCr4t99abGU-64" value="(1,1)" style="text;html=1;strokeColor=none;fillColor=none;align=center;verticalAlign=middle;whiteSpace=wrap;rounded=0;" vertex="1" parent="1">
          <mxGeometry x="-1380" y="1442.5" width="40" height="20" as="geometry" />
        </mxCell>
        <mxCell id="jgZs0tNBGPCr4t99abGU-65" value="(0,N)" style="text;html=1;strokeColor=none;fillColor=none;align=center;verticalAlign=middle;whiteSpace=wrap;rounded=0;" vertex="1" parent="1">
          <mxGeometry x="-2050" y="1682.5" width="40" height="20" as="geometry" />
        </mxCell>
        <mxCell id="ONGbUly9TddQm0EwpMgI-1" value="" style="shape=providedRequiredInterface;html=1;verticalLabelPosition=bottom;sketch=0;rotation=90;fillColor=#e1d5e7;strokeColor=#9673a6;" vertex="1" parent="1">
          <mxGeometry x="-610" y="1180" width="20" height="20" as="geometry" />
        </mxCell>
        <mxCell id="ONGbUly9TddQm0EwpMgI-2" value="" style="shape=providedRequiredInterface;html=1;verticalLabelPosition=bottom;sketch=0;rotation=90;fillColor=#f8cecc;strokeColor=#b85450;" vertex="1" parent="1">
          <mxGeometry x="-850" y="1180" width="20" height="20" as="geometry" />
        </mxCell>
        <mxCell id="ONGbUly9TddQm0EwpMgI-3" value="" style="shape=providedRequiredInterface;html=1;verticalLabelPosition=bottom;sketch=0;rotation=90;fillColor=#dae8fc;strokeColor=#6c8ebf;" vertex="1" parent="1">
          <mxGeometry x="-770" y="1180" width="20" height="20" as="geometry" />
        </mxCell>
        <mxCell id="K1sBR5tFp1tcEWr6KJ2s-1" value="" style="rounded=0;orthogonalLoop=1;jettySize=auto;html=1;endArrow=halfCircle;endFill=0;endSize=6;strokeWidth=1;sketch=0;" edge="1" parent="1">
          <mxGeometry relative="1" as="geometry">
            <mxPoint x="-1090" y="1555" as="sourcePoint" />
            <Array as="points">
              <mxPoint x="-1090" y="1640" />
            </Array>
            <mxPoint x="-980" y="1640" as="targetPoint" />
          </mxGeometry>
        </mxCell>
        <mxCell id="K1sBR5tFp1tcEWr6KJ2s-2" value="" style="rounded=0;orthogonalLoop=1;jettySize=auto;html=1;endArrow=oval;endFill=0;sketch=0;sourcePerimeterSpacing=0;targetPerimeterSpacing=0;endSize=10;" edge="1" parent="1">
          <mxGeometry relative="1" as="geometry">
            <mxPoint x="-880" y="1555" as="sourcePoint" />
            <Array as="points">
              <mxPoint x="-880" y="1640" />
              <mxPoint x="-960" y="1640" />
            </Array>
            <mxPoint x="-980" y="1640" as="targetPoint" />
          </mxGeometry>
        </mxCell>
        <mxCell id="K1sBR5tFp1tcEWr6KJ2s-3" value="Student Notification Interface" style="text;html=1;strokeColor=none;fillColor=none;align=center;verticalAlign=middle;whiteSpace=wrap;rounded=0;" vertex="1" parent="1">
          <mxGeometry x="-1080" y="1615" width="200" height="20" as="geometry" />
        </mxCell>
        <mxCell id="K1sBR5tFp1tcEWr6KJ2s-6" value="Student&lt;br&gt;Notification&amp;nbsp;&lt;br&gt;Manager" style="html=1;dropTarget=0;whiteSpace=wrap;" vertex="1" parent="1">
          <mxGeometry x="1310" y="1540" width="120" height="80" as="geometry" />
        </mxCell>
        <mxCell id="K1sBR5tFp1tcEWr6KJ2s-7" value="" style="shape=module;jettyWidth=8;jettyHeight=4;" vertex="1" parent="K1sBR5tFp1tcEWr6KJ2s-6">
          <mxGeometry x="1" width="20" height="20" relative="1" as="geometry">
            <mxPoint x="-27" y="7" as="offset" />
          </mxGeometry>
        </mxCell>
        <mxCell id="K1sBR5tFp1tcEWr6KJ2s-10" value="" style="rounded=0;orthogonalLoop=1;jettySize=auto;html=1;endArrow=halfCircle;endFill=0;endSize=6;strokeWidth=1;sketch=0;" edge="1" parent="1">
          <mxGeometry relative="1" as="geometry">
            <mxPoint x="1000" y="1380" as="sourcePoint" />
            <Array as="points">
              <mxPoint x="1000" y="1580" />
            </Array>
            <mxPoint x="1120" y="1580" as="targetPoint" />
          </mxGeometry>
        </mxCell>
        <mxCell id="K1sBR5tFp1tcEWr6KJ2s-11" value="" style="rounded=0;orthogonalLoop=1;jettySize=auto;html=1;endArrow=oval;endFill=0;sketch=0;sourcePerimeterSpacing=0;targetPerimeterSpacing=0;endSize=10;exitX=0;exitY=0.5;exitDx=0;exitDy=0;" edge="1" parent="1" source="K1sBR5tFp1tcEWr6KJ2s-13">
          <mxGeometry relative="1" as="geometry">
            <mxPoint x="1230" y="1465" as="sourcePoint" />
            <Array as="points">
              <mxPoint x="1220" y="1580" />
              <mxPoint x="1160" y="1580" />
            </Array>
            <mxPoint x="1120" y="1580" as="targetPoint" />
          </mxGeometry>
        </mxCell>
        <mxCell id="K1sBR5tFp1tcEWr6KJ2s-12" value="Notification Interface" style="text;html=1;strokeColor=none;fillColor=none;align=center;verticalAlign=middle;whiteSpace=wrap;rounded=0;" vertex="1" parent="1">
          <mxGeometry x="1000" y="1550" width="240" height="20" as="geometry" />
        </mxCell>
        <mxCell id="K1sBR5tFp1tcEWr6KJ2s-13" value="" style="rounded=0;whiteSpace=wrap;html=1;" vertex="1" parent="1">
          <mxGeometry x="1240" y="1570" width="20" height="20" as="geometry" />
        </mxCell>
        <mxCell id="K1sBR5tFp1tcEWr6KJ2s-14" value="" style="endArrow=none;html=1;rounded=0;exitX=1;exitY=0.5;exitDx=0;exitDy=0;entryX=0;entryY=0.5;entryDx=0;entryDy=0;" edge="1" parent="1">
          <mxGeometry width="50" height="50" relative="1" as="geometry">
            <mxPoint x="1260" y="1580" as="sourcePoint" />
            <mxPoint x="1310" y="1580" as="targetPoint" />
          </mxGeometry>
        </mxCell>
        <mxCell id="K1sBR5tFp1tcEWr6KJ2s-15" value="" style="endArrow=none;html=1;rounded=0;entryX=1;entryY=0.25;entryDx=0;entryDy=0;" edge="1" parent="1">
          <mxGeometry width="50" height="50" relative="1" as="geometry">
            <mxPoint x="1500" y="1460" as="sourcePoint" />
            <mxPoint x="1430" y="1560" as="targetPoint" />
            <Array as="points">
              <mxPoint x="1500" y="1560" />
            </Array>
          </mxGeometry>
        </mxCell>
        <mxCell id="7CF9CsB8fa3hAw0vR7Yd-129" value="" style="rounded=0;whiteSpace=wrap;html=1;" vertex="1" parent="1">
          <mxGeometry x="1690" y="1630" width="20" height="20" as="geometry" />
        </mxCell>
        <mxCell id="K1sBR5tFp1tcEWr6KJ2s-18" value="" style="rounded=0;orthogonalLoop=1;jettySize=auto;html=1;endArrow=halfCircle;endFill=0;endSize=6;strokeWidth=1;sketch=0;exitX=0.5;exitY=1;exitDx=0;exitDy=0;" edge="1" parent="1" source="AD9h0x3ZnpMd-QSPCWr3-9" target="K1sBR5tFp1tcEWr6KJ2s-20">
          <mxGeometry relative="1" as="geometry">
            <mxPoint x="-510" y="1525" as="sourcePoint" />
          </mxGeometry>
        </mxCell>
        <mxCell id="K1sBR5tFp1tcEWr6KJ2s-19" value="" style="rounded=0;orthogonalLoop=1;jettySize=auto;html=1;endArrow=oval;endFill=0;sketch=0;sourcePerimeterSpacing=0;targetPerimeterSpacing=0;endSize=10;exitX=0.5;exitY=0;exitDx=0;exitDy=0;" edge="1" parent="1" source="AD9h0x3ZnpMd-QSPCWr3-11" target="K1sBR5tFp1tcEWr6KJ2s-20">
          <mxGeometry relative="1" as="geometry">
            <mxPoint x="-550" y="1525" as="sourcePoint" />
          </mxGeometry>
        </mxCell>
        <mxCell id="K1sBR5tFp1tcEWr6KJ2s-20" value="" style="ellipse;whiteSpace=wrap;html=1;align=center;aspect=fixed;fillColor=none;strokeColor=none;resizable=0;perimeter=centerPerimeter;rotatable=0;allowArrows=0;points=[];outlineConnect=1;" vertex="1" parent="1">
          <mxGeometry x="-785.03" y="1415" width="10" height="10" as="geometry" />
        </mxCell>
        <mxCell id="K1sBR5tFp1tcEWr6KJ2s-21" value="Notification&lt;br&gt;Interface" style="text;html=1;strokeColor=none;fillColor=none;align=center;verticalAlign=middle;whiteSpace=wrap;rounded=0;" vertex="1" parent="1">
          <mxGeometry x="-760.03" y="1400" width="80.06" height="40" as="geometry" />
        </mxCell>
        <mxCell id="K1sBR5tFp1tcEWr6KJ2s-22" value="" style="endArrow=none;html=1;rounded=0;entryX=1;entryY=0.5;entryDx=0;entryDy=0;exitX=1;exitY=0.5;exitDx=0;exitDy=0;strokeColor=#999999;" edge="1" parent="1" target="7CF9CsB8fa3hAw0vR7Yd-103">
          <mxGeometry width="50" height="50" relative="1" as="geometry">
            <mxPoint x="1430" y="1580" as="sourcePoint" />
            <mxPoint x="1430" y="1380" as="targetPoint" />
            <Array as="points">
              <mxPoint x="1520" y="1580" />
              <mxPoint x="1520" y="1480" />
            </Array>
          </mxGeometry>
        </mxCell>
        <mxCell id="K1sBR5tFp1tcEWr6KJ2s-23" value="" style="endArrow=none;html=1;rounded=0;entryX=1;entryY=0.5;entryDx=0;entryDy=0;exitX=1;exitY=0.5;exitDx=0;exitDy=0;strokeColor=#999999;" edge="1" parent="1">
          <mxGeometry width="50" height="50" relative="1" as="geometry">
            <mxPoint x="1430" y="1480" as="sourcePoint" />
            <mxPoint x="1430" y="1380" as="targetPoint" />
            <Array as="points">
              <mxPoint x="1520" y="1480" />
              <mxPoint x="1520" y="1380" />
            </Array>
          </mxGeometry>
        </mxCell>
        <mxCell id="K1sBR5tFp1tcEWr6KJ2s-24" value="" style="endArrow=none;html=1;rounded=0;entryX=1;entryY=0.5;entryDx=0;entryDy=0;exitX=1;exitY=0.5;exitDx=0;exitDy=0;strokeColor=#999999;" edge="1" parent="1">
          <mxGeometry width="50" height="50" relative="1" as="geometry">
            <mxPoint x="390" y="1540" as="sourcePoint" />
            <mxPoint x="390" y="1340" as="targetPoint" />
            <Array as="points">
              <mxPoint x="480" y="1540" />
              <mxPoint x="480" y="1340" />
            </Array>
          </mxGeometry>
        </mxCell>
        <mxCell id="nGsSVLddZj6Xyj9W1kIO-1" value="" style="rounded=0;orthogonalLoop=1;jettySize=auto;html=1;endArrow=halfCircle;endFill=0;endSize=6;strokeWidth=1;sketch=0;" edge="1" parent="1">
          <mxGeometry relative="1" as="geometry">
            <mxPoint x="-1090" y="1277.5" as="sourcePoint" />
            <Array as="points">
              <mxPoint x="-1090" y="1202.5" />
            </Array>
            <mxPoint x="-980" y="1202.5" as="targetPoint" />
          </mxGeometry>
        </mxCell>
        <mxCell id="nGsSVLddZj6Xyj9W1kIO-2" value="" style="rounded=0;orthogonalLoop=1;jettySize=auto;html=1;endArrow=oval;endFill=0;sketch=0;sourcePerimeterSpacing=0;targetPerimeterSpacing=0;endSize=10;" edge="1" parent="1">
          <mxGeometry relative="1" as="geometry">
            <mxPoint x="-880" y="1285" as="sourcePoint" />
            <Array as="points">
              <mxPoint x="-880" y="1277.5" />
              <mxPoint x="-880" y="1237.5" />
              <mxPoint x="-880" y="1202.5" />
              <mxPoint x="-960" y="1202.5" />
            </Array>
            <mxPoint x="-980" y="1202.5" as="targetPoint" />
          </mxGeometry>
        </mxCell>
        <mxCell id="nGsSVLddZj6Xyj9W1kIO-3" value="Testing Manager Interface" style="text;html=1;strokeColor=none;fillColor=none;align=center;verticalAlign=middle;whiteSpace=wrap;rounded=0;" vertex="1" parent="1">
          <mxGeometry x="-1090" y="1175" width="210" height="20" as="geometry" />
        </mxCell>
        <mxCell id="nGsSVLddZj6Xyj9W1kIO-4" value="" style="rounded=0;orthogonalLoop=1;jettySize=auto;html=1;endArrow=halfCircle;endFill=0;endSize=6;strokeWidth=1;sketch=0;" edge="1" parent="1">
          <mxGeometry relative="1" as="geometry">
            <mxPoint x="-40" y="1440" as="sourcePoint" />
            <Array as="points">
              <mxPoint x="-40" y="1640" />
            </Array>
            <mxPoint x="80" y="1640" as="targetPoint" />
          </mxGeometry>
        </mxCell>
        <mxCell id="nGsSVLddZj6Xyj9W1kIO-5" value="" style="rounded=0;orthogonalLoop=1;jettySize=auto;html=1;endArrow=oval;endFill=0;sketch=0;sourcePerimeterSpacing=0;targetPerimeterSpacing=0;endSize=10;exitX=0;exitY=0.5;exitDx=0;exitDy=0;" edge="1" parent="1" source="nGsSVLddZj6Xyj9W1kIO-6">
          <mxGeometry relative="1" as="geometry">
            <mxPoint x="190" y="1525" as="sourcePoint" />
            <Array as="points">
              <mxPoint x="180" y="1640" />
              <mxPoint x="120" y="1640" />
            </Array>
            <mxPoint x="80" y="1640" as="targetPoint" />
          </mxGeometry>
        </mxCell>
        <mxCell id="nGsSVLddZj6Xyj9W1kIO-6" value="" style="rounded=0;whiteSpace=wrap;html=1;" vertex="1" parent="1">
          <mxGeometry x="200" y="1630" width="20" height="20" as="geometry" />
        </mxCell>
        <mxCell id="nGsSVLddZj6Xyj9W1kIO-7" value="Testing Manager Interface" style="text;html=1;strokeColor=none;fillColor=none;align=center;verticalAlign=middle;whiteSpace=wrap;rounded=0;" vertex="1" parent="1">
          <mxGeometry x="-40" y="1610" width="240" height="20" as="geometry" />
        </mxCell>
        <mxCell id="nGsSVLddZj6Xyj9W1kIO-8" value="Testing&lt;br&gt;Manager" style="html=1;dropTarget=0;whiteSpace=wrap;" vertex="1" parent="1">
          <mxGeometry x="269.97" y="1600" width="120" height="80" as="geometry" />
        </mxCell>
        <mxCell id="nGsSVLddZj6Xyj9W1kIO-9" value="" style="shape=module;jettyWidth=8;jettyHeight=4;" vertex="1" parent="nGsSVLddZj6Xyj9W1kIO-8">
          <mxGeometry x="1" width="20" height="20" relative="1" as="geometry">
            <mxPoint x="-27" y="7" as="offset" />
          </mxGeometry>
        </mxCell>
        <mxCell id="nGsSVLddZj6Xyj9W1kIO-10" value="" style="endArrow=none;html=1;rounded=0;exitX=1;exitY=0.5;exitDx=0;exitDy=0;entryX=0;entryY=0.5;entryDx=0;entryDy=0;" edge="1" parent="1">
          <mxGeometry width="50" height="50" relative="1" as="geometry">
            <mxPoint x="220" y="1640" as="sourcePoint" />
            <mxPoint x="270" y="1640" as="targetPoint" />
          </mxGeometry>
        </mxCell>
        <mxCell id="nGsSVLddZj6Xyj9W1kIO-11" value="" style="endArrow=none;html=1;rounded=0;entryX=1;entryY=0.25;entryDx=0;entryDy=0;" edge="1" parent="1">
          <mxGeometry width="50" height="50" relative="1" as="geometry">
            <mxPoint x="459.97" y="1520" as="sourcePoint" />
            <mxPoint x="389.97" y="1620" as="targetPoint" />
            <Array as="points">
              <mxPoint x="459.97" y="1620" />
            </Array>
          </mxGeometry>
        </mxCell>
        <mxCell id="nGsSVLddZj6Xyj9W1kIO-12" value="" style="endArrow=none;html=1;rounded=0;entryX=1;entryY=0.5;entryDx=0;entryDy=0;exitX=1;exitY=0.5;exitDx=0;exitDy=0;strokeColor=#999999;" edge="1" parent="1">
          <mxGeometry width="50" height="50" relative="1" as="geometry">
            <mxPoint x="389.97" y="1640" as="sourcePoint" />
            <mxPoint x="389.97" y="1440" as="targetPoint" />
            <Array as="points">
              <mxPoint x="479.97" y="1640" />
              <mxPoint x="479.97" y="1440" />
            </Array>
          </mxGeometry>
        </mxCell>
        <mxCell id="nGsSVLddZj6Xyj9W1kIO-13" value="" style="endArrow=none;dashed=1;html=1;rounded=0;fillColor=#f8cecc;strokeColor=#b85450;" edge="1" parent="1">
          <mxGeometry width="50" height="50" relative="1" as="geometry">
            <mxPoint x="500" y="1660" as="sourcePoint" />
            <mxPoint x="500" y="1360" as="targetPoint" />
            <Array as="points">
              <mxPoint x="390" y="1660" />
              <mxPoint x="500" y="1660" />
              <mxPoint x="500" y="1390" />
            </Array>
          </mxGeometry>
        </mxCell>
        <mxCell id="nGsSVLddZj6Xyj9W1kIO-14" value="Query &lt;br&gt;Manager &lt;br&gt;Interface" style="text;html=1;strokeColor=none;fillColor=none;align=center;verticalAlign=middle;whiteSpace=wrap;rounded=0;" vertex="1" parent="1">
          <mxGeometry x="1570.03" y="1282.5" width="69.97" height="40" as="geometry" />
        </mxCell>
        <mxCell id="7CF9CsB8fa3hAw0vR7Yd-62" value="" style="rounded=0;whiteSpace=wrap;html=1;" vertex="1" parent="1">
          <mxGeometry x="640" y="1060" width="20" height="20" as="geometry" />
        </mxCell>
      </root>
    </mxGraphModel>
  </diagram>
</mxfile>
